<?xml version="1.0" encoding="UTF-8"?><svg id="Layer_2" xmlns="http://www.w3.org/2000/svg" width="177.34" height="276.57" viewBox="0 0 177.34 276.57"><defs><style>.cls-1{fill:#fff;stroke-width:0px;}</style></defs><g id="Layer_1-2"><path class="cls-1" d="m35.71,93.18c-2.88-1.21-6.07-1.65-9.16-1.28-1.58.19-3.13.55-4.61,1.14-1.28.51-2.79,1.12-3.74,2.17-2.19,2.44.33,4.97,2.75,5.67,1.53.45,3.26.54,4.85.61,1.83.09,3.67.02,5.49-.19,3.25-.39,6.43-1.32,8.47-4.04.96-1.29-1.2-2.54-2.16-1.26-1.7,2.27-5.01,2.72-7.63,2.93-1.77.14-3.54.13-5.31-.01-1.37-.11-3.12-.16-4.28-1.02s.36-1.55,1.18-1.97c1.37-.69,2.84-1.16,4.35-1.43,3.09-.56,6.26-.13,9.14,1.08.63.26,1.37-.28,1.54-.87.21-.72-.25-1.28-.87-1.54h0Z"/><path class="cls-1" d="m20.21,100.99c3.23,10.3,3.27,21.46.01,31.76s-9.94,18.91-14.14,28.74C-2.52,181.6.07,204.36,1.56,225.57c.94,13.37,1.99,26.73,3.14,40.09.14,1.59,2.64,1.61,2.5,0-1.03-11.87-1.97-23.75-2.83-35.63s-1.82-22.66-1.81-34c.01-10.75,1.12-21.62,5.03-31.71s10.62-18.67,14.31-28.79c4.09-11.24,4.28-23.8.71-35.2-.48-1.53-2.89-.88-2.41.66h0Z"/><path class="cls-1" d="m36.03,103.5c-2.32,10.29-.64,20.93,4.48,30.12,2.56,4.58,5.7,8.8,8.35,13.32s4.66,8.94,6.39,13.67c7.21,19.67,8.18,41.02,9.11,61.73.59,13.21.9,26.43.93,39.65,0,1.61,2.5,1.61,2.5,0-.03-11.72-.27-23.45-.74-35.16-.43-10.74-.93-21.5-2.04-32.19-1.05-10.07-2.69-20.14-5.7-29.82-1.47-4.73-3.27-9.37-5.45-13.83s-5.09-8.93-7.9-13.26c-3.21-4.94-6.04-10.01-7.42-15.79s-1.42-11.93-.1-17.77c.35-1.57-2.06-2.24-2.41-.66h0Z"/><path class="cls-1" d="m65.56,261.51c-12.72,10.16-30.39,13.36-46.02,9.18-4.42-1.19-8.64-2.97-12.57-5.32-1.38-.83-2.64,1.33-1.26,2.16,14.7,8.8,33.5,9.73,49.22,3.12,4.47-1.88,8.61-4.35,12.4-7.37,1.26-1-.52-2.76-1.77-1.77h0Z"/><path class="cls-1" d="m34.68,47.45c-3.18,27.57-4.93,55.3-5.21,83.05s.88,55.62,3.49,83.3c1.47,15.52,3.4,31,5.77,46.42.24,1.59,2.65.91,2.41-.66-4.22-27.46-6.99-55.14-8.31-82.89s-1.19-55.24.37-82.81c.88-15.5,2.21-30.98,3.99-46.41.18-1.6-2.32-1.58-2.5,0h0Z"/><path class="cls-1" d="m34.08,81.19c1.17-11.73-3.28-23.73-11.76-31.91-1.16-1.12-2.93.65-1.77,1.77,8.05,7.76,12.14,19.02,11.03,30.14-.16,1.6,2.34,1.59,2.5,0h0Z"/><path class="cls-1" d="m33.73,89.42c.15-5.71,3.7-10.76,8.18-14.06,5.13-3.78,11.32-5.66,17.34-7.49,1.53-.47.88-2.88-.66-2.41-6.56,2-13.33,4.1-18.8,8.41-4.8,3.78-8.39,9.32-8.55,15.56-.04,1.61,2.46,1.61,2.5,0h0Z"/><path class="cls-1" d="m21.55,49.22c-2.43-.21-4.9.05-7.23.75-.63.19-1.08.89-.87,1.54s.87,1.07,1.54.87c.54-.16,1.08-.3,1.63-.41.66-.13.95-.18,1.52-.23,1.14-.11,2.28-.11,3.42-.01.65.06,1.28-.62,1.25-1.25-.03-.73-.55-1.19-1.25-1.25h0Z"/><path class="cls-1" d="m24.92,51.93c-2.67-4.19-5.35-8.39-8.02-12.58-.86-1.35-3.03-.1-2.16,1.26,2.67,4.19,5.35,8.39,8.02,12.58.86,1.35,3.03.1,2.16-1.26h0Z"/><path class="cls-1" d="m27.67,56.7c-2.12-6.59-2.79-13.59-1.86-20.45.09-.67-.16-1.33-.87-1.54-.58-.17-1.45.2-1.54.87-1,7.32-.41,14.74,1.86,21.78.49,1.53,2.9.87,2.41-.66h0Z"/><path class="cls-1" d="m15.58,35.94c.2-1.7-1.61-2.92-3.15-2.84-.98.05-1.76.49-2.35,1.27-.51.68-.72,1.62-.65,2.46.18,1.96,1.5,4.03,3.61,4.22,1.02.1,2.07-.44,2.76-1.17s1.1-1.72,1.23-2.75c.11-.94-.1-1.95-.59-2.76s-1.27-1.39-2.17-1.73c-1.69-.64-3.69.04-4.58,1.62-.83,1.48-.7,3.52.58,4.72s3.35,1.41,4.84.49,2.16-2.93,1.58-4.62-2.16-2.84-3.97-2.68-3.35,1.23-3.8,2.97.3,3.58,1.72,4.65,3.42.94,4.83.01c1.58-1.03,2.33-2.86,1.9-4.71s-1.99-3.14-3.84-3.14c-1.71,0-3.51,1.16-3.78,2.93s.71,3.69,2.51,4.18,3.87-.88,4.15-2.74c.18-1.16-.22-2.21-1.19-2.9s-2.31-.5-3.03.44c-.6.78-1.02,1.95-.72,2.94.18.61.64,1.14,1.26,1.33.49.15,1.07.04,1.5-.24.4-.26.74-.65.85-1.12.17-.71-.15-1.31-.73-1.71-.54-.38-1.41-.12-1.71.45-.34.64-.13,1.31.45,1.71-.35-.24-.42-.44-.42-.82v-.27c.1-.22.13-.27.07-.16.18-.27.16-.2.09-.13-.15.15.22-.15.09-.07s.32-.1.11-.04c-.11.03-.15-.02.16-.02.19,0,.36.06.5.18.07.05.13.11.17.19-.05-.1-.06-.09-.01,0l.03.07c-.03-.13-.03-.11,0,.09,0,0,0-.19,0-.17,0-.26,0,.07-.01.07-.02-.03.06-.23.07-.27,0-.02.06-.17.06-.17.03.03-.11.22-.02.05.04-.07.07-.14.1-.2s.24-.34.04-.08c.04-.05.17-.14-.05.02.16-.12-.04.01-.08.03.24-.1-.23.02-.06.01s-.3-.09-.06,0c-.29-.11-.14-.07-.07-.03.03.02.23.17.08.04-.16-.14.05.06.06.07.17.16-.11-.2,0,.02s-.03-.07-.02-.07c.02,0,.04.18.06.2.07.12,0-.3,0-.05,0,.05,0,.11,0,.16.01.22-.01-.08.02-.1-.02.01-.05.2-.06.23,0,.02-.05.15-.05.15.07-.16.09-.2.04-.11-.02.04-.04.07-.06.11-.03.05-.06.09-.09.14-.13.24.19-.19,0,0-.08.08-.15.16-.23.23-.18.18.17-.07.03-.02-.06.02-.12.08-.17.11.01,0-.14.08-.15.07.17-.07.2-.08.07-.04l-.08.02-.08.02c-.11.02-.11.02,0,0h.09c-.05,0-.11,0-.16,0,.01,0-.16,0-.16,0,.02-.06.3.08.06,0-.06-.02-.12-.04-.18-.05-.16-.04.04-.06.09.04-.01-.03-.45-.28-.25-.14.17.12-.11-.11-.15-.16,0,0-.08-.11-.1-.11l.1.13s-.06-.08-.08-.13c-.05-.09-.1-.18-.15-.27-.12-.22.05.21.02.05-.01-.08-.06-.17-.08-.26-.01-.05-.02-.1-.03-.15-.05-.21.02.08.01.11.03-.05,0-.31,0-.38,0-.15.07-.03-.02.11.03-.04.03-.14.04-.19,0-.03.07-.17.06-.18.03.05-.14.28,0,.02.03-.05.06-.09.08-.14.12-.23-.15.14-.03.03.08-.08.16-.17.24-.25.16-.16-.05.06-.07.05,0,0,.18-.12.2-.13.04-.03.09-.05.14-.08.03-.02.07-.04.11-.05.09-.04.05-.02-.12.05.02.01.35-.11.38-.12.05-.01.1-.02.16-.03.22-.05-.08.03-.1.01.03.02.35-.01.4-.01.03,0,.15.02.16.01-.2-.03-.23-.03-.1-.01l.08.02s.37.12.38.11c-.02.02-.28-.14-.08-.03.06.03.12.06.18.1.04.02.16.08.17.12,0,0-.23-.2-.06-.04.04.04.08.08.12.12.03.03.25.29.12.13s.03.06.05.08c.03.05.06.09.09.14s.05.1.08.15c.14.25-.08-.26,0,0,.03.11.07.21.1.32.02.07.03.14.05.21,0,.04.02.08.02.12-.02-.18-.03-.22-.02-.12,0,.13.02.25.01.38,0,.07-.01.14-.01.21,0,.18.07-.31,0-.04-.03.12-.06.25-.1.37-.08.23.05.02.02-.02.01.03-.1.2-.11.22-.03.05-.06.1-.08.14-.02.03-.13.25-.04.08.08-.17-.02.02-.06.06s-.07.08-.11.12-.08.08-.12.11l-.06.05c-.1.09-.08.07.06-.04-.02.08-.27.18-.35.23-.05.03-.1.05-.15.08-.02.01-.27.14-.08.04s-.05.02-.08.03c-.05.02-.1.03-.16.05-.03,0-.4.08-.4.09,0-.02.32-.02.09-.01-.08,0-.16.01-.25.01-.07,0-.14,0-.2,0-.24,0,.01-.06.05.01-.02-.03-.31-.07-.36-.08-.02,0-.2-.06-.2-.07,0-.01.28.14.08.03-.13-.07-.25-.16-.38-.22-.15-.07.22.2.03.02-.04-.04-.08-.07-.12-.11-.09-.08-.16-.18-.24-.26-.12-.12.16.26.03.03-.03-.05-.06-.09-.09-.13-.03-.06-.07-.11-.1-.17-.02-.04-.04-.07-.05-.11-.04-.1-.05-.1,0,0l.03.08s-.04-.1-.06-.15c-.02-.05-.03-.1-.05-.15s-.06-.36-.09-.39c.02.01.03.32.01.1,0-.07,0-.13-.01-.2s0-.13,0-.2v-.08c.02-.14.01-.11-.02.1.05-.09.05-.25.08-.35,0-.02.07-.19.06-.19.01,0-.14.28-.03.08.06-.1.11-.2.17-.3.12-.2.05.04-.03.04.01,0,.14-.16.15-.17.04-.04.31-.3.16-.15-.14.13.13-.08.19-.12.06-.03.11-.06.17-.09.18-.1.07.05-.05.02.08.02.28-.1.37-.12.06-.02.13-.03.19-.04.17-.04.13.06-.06,0,.09.03.25-.02.35-.02.1,0,.24.04.34.02-.22.03-.23-.04-.11,0,.07.02.15.03.22.05.04.01.18.08.22.07-.03,0-.27-.14-.09-.03.09.05.2.13.3.17.14.06-.22-.21-.03-.03.04.04.08.07.12.11.05.04.09.11.14.15.07.06-.14-.23,0,0,.06.1.12.21.18.31.13.23-.05-.2-.02-.04.01.06.05.13.06.19.03.1.05.21.07.31.06.27,0-.29,0-.01,0,.08,0,.16,0,.24,0,.07-.05.26-.02.32l.02-.17c0,.05-.02.1-.03.16-.01.05-.02.1-.04.15s-.03.1-.05.15c-.07.25.11-.18.02-.04-.01.02-.21.39-.22.38-.03-.02.18-.2.05-.06-.05.05-.09.1-.14.14-.02.02-.15.12-.15.13-.01-.07.22-.15.06-.06-.03.02-.34.17-.34.19,0-.02.29-.1.08-.04-.08.02-.15.05-.22.07-.06.02-.13.03-.19.04-.22.05-.03-.07.06,0-.05-.03-.25.01-.32.01-.08,0-.16,0-.24-.01-.17,0,.04-.05.1.01-.05-.05-.31-.07-.38-.09l-.07-.02c-.13-.05-.1-.03.08.04,0-.01-.14-.07-.14-.07-.1-.05-.2-.13-.3-.18-.14-.07.22.21.04.03-.04-.04-.08-.07-.11-.11-.05-.05-.12-.21-.06-.05.07.18-.03-.05-.06-.09-.03-.05-.06-.11-.09-.17-.08-.13.05-.04.03.09.01-.07-.09-.28-.11-.36,0-.04-.01-.12-.03-.15.09.16.02.25.02.11,0-.15,0-.3,0-.46s.07-.02-.02.11c.02-.03.02-.11.03-.15.03-.13.07-.24.11-.37.06-.2-.02.07-.04.09.03-.02.06-.13.08-.17.03-.06.06-.11.1-.16.02-.03.04-.06.06-.09.05-.08.03-.04-.08.1.06-.03.18-.2.23-.25.13-.14.11,0-.05.03.02,0,.11-.08.12-.09.05-.03.11-.06.16-.1.22-.13-.03,0-.03,0,0-.05.34-.1.4-.11.27-.06-.22,0-.04,0,.07,0,.14,0,.21,0,.06,0,.11,0,.17,0,.25,0-.09,0-.08-.02,0-.01.36.08.41.09.05.02.11.04.16.05.25.08-.2-.11.01,0,.12.07.24.14.36.21.2.13-.05-.04-.05-.04.03,0,.13.11.16.14.05.05.1.1.15.15.08.08.12.04-.04-.06.12.08.19.32.26.43.09.16-.08-.28,0,0,.02.06.04.12.06.18.02.07.04.15.06.23.02.1.11.25,0,0,.04.11.02.26.02.38,0,.09,0,.19-.01.28,0,.26.06-.23,0,.04-.03.12-.05.25-.09.37-.02.08-.05.2-.09.27.02-.02.12-.25.01-.04-.07.13-.13.25-.21.37-.05.08-.1.24,0,.01-.03.08-.14.16-.19.21-.05.05-.09.09-.14.13-.21.21.14-.08-.01.01-.02.01-.34.24-.37.21.02.02.24-.08,0-.01-.05.01-.18.07-.22.05,0,0,.32,0,.06-.02-.05,0-.09,0-.14,0-.1,0-.06,0,.1.02-.05.02-.17-.05-.23-.06-.16-.03.23.15,0,0-.05-.03-.11-.07-.16-.1-.2-.12,0,.01.02.03-.12-.06-.25-.23-.35-.33-.04-.04-.1-.1-.12-.15.14.25.02.02-.02-.04-.08-.12-.15-.25-.22-.38-.01-.03-.07-.12-.08-.16.02.23.05.13.01.01s-.08-.25-.11-.38c-.02-.07-.03-.14-.05-.21-.02-.1-.01-.06.01.12,0-.04,0-.09-.01-.13-.01-.13-.01-.26,0-.39v-.08c.02-.11.01-.11,0,0v.08c0-.06,0-.11.02-.16,0-.04.07-.32.1-.32,0,0-.15.26,0,.04.03-.04.11-.24.15-.25.01,0-.22.23-.04.06.03-.03.08-.07.11-.11.15-.17-.2.1-.07.05.05-.02.1-.06.14-.08.16-.1-.09.05-.12.05.04,0,.11-.04.16-.05.05-.01.12-.01.16-.03-.1.05-.31.03-.07.02.07,0,.4.04.17,0s.1.03.16.04c.05.01.1.04.16.05.15.03-.29-.15-.09-.04.09.05.18.12.27.16-.27-.12-.17-.16-.11-.08,0,0,.13.13.13.13-.03.01-.17-.28-.09-.11.01.03.04.08.06.1.13.16-.06-.24-.05-.11,0,.03.02.12.04.15-.12-.18-.02-.29-.03-.15,0,.07,0,.13-.01.19-.08.65.63,1.28,1.25,1.25.74-.03,1.17-.55,1.25-1.25h0Z"/><path class="cls-1" d="m14.67,48.96c-.85-1.53-2.97-1.37-4.1-.26-1.39,1.37-.77,3.52.23,4.92.3.41.61.85,1.07,1.09.59.32,1.32.32,1.89-.04.44-.28.75-.69,1.04-1.11.23-.33.45-.67.63-1.04.42-.89.66-1.85.44-2.83-.19-.83-.75-1.63-1.49-2.06-1.7-.99-3.75.24-4.19,2.02-.39,1.55.33,3.38,1.97,3.83,1.51.41,3.31-.54,3.72-2.08.22-.83,0-1.7-.58-2.33-.49-.54-1.18-.78-1.89-.86-.59-.07-1.28.08-1.76.43-.85.62-1.15,1.57-.97,2.59.15.88.75,1.64,1.34,2.28.55.6,1.37.53,2,.12.48-.31.8-.76,1-1.3.16-.43.16-.95.03-1.39-.18-.63-.89-1.08-1.54-.87s-1.06.86-.87,1.54c.01.03.02.06.03.1.02.1.01.04-.02-.17-.02.03-.01.28,0,.03s-.03,0-.02.03c.08-.18.1-.23.06-.14-.01.03-.03.06-.05.09-.08.18.16-.15.06-.06-.03.03-.1.08-.12.12.16-.12.2-.15.12-.1-.03.02-.06.03-.09.05.05-.08.29-.1.05-.04l1.22.32c-.1-.1-.19-.21-.29-.32-.04-.04-.07-.09-.11-.13-.1-.12.02-.07.03.05-.01-.09-.17-.25-.22-.32-.04-.06-.07-.12-.1-.19-.13-.21.07.24,0,0-.02-.05-.05-.29-.08-.31.1.05,0,.27.02.1,0-.03,0-.3,0-.07s.02-.03.03-.07c.02-.12.13-.01-.07.16.02-.01.03-.06.05-.09.11-.17-.22.23-.08.1.03-.03.06-.05.08-.08.09-.1-.26.17-.14.11.05-.03.14-.07.18-.1-.22.18-.28.1-.17.07.04,0,.08-.02.12-.03.01,0,.12-.03.12-.02,0,0-.4.02-.14.02.07,0,.13,0,.2,0,.03,0,.07.01.1,0-.33.02-.28-.05-.16-.02.07.02.15.05.22.06.18.04-.19-.06-.16-.07.03,0,.1.05.13.07.05.03.28.19.08.04-.22-.17,0,.05.05.07-.2-.1-.17-.25-.11-.14.02.03.04.07.06.1.13.21-.15-.32-.02-.02.05.13-.01-.36-.02-.14,0,.04,0,.08,0,.12.01.2,0-.17.03-.16.01,0-.03.12-.03.14-.02.11-.12.17.06-.11-.02.03-.03.07-.05.1s-.04.06-.06.1c-.1.19.21-.22.06-.07-.06.06-.13.12-.19.19-.1.11.28-.18.09-.07-.03.02-.07.04-.1.06-.07.04-.15.07-.21.11.27-.17.22-.08.1-.05-.06.02-.11.04-.17.05-.03,0-.12.04-.15.03-.01,0,.36-.02.16-.03-.07,0-.38-.02-.13.01s-.06-.03-.12-.04c-.12-.03-.05-.09.13.06-.04-.03-.11-.07-.16-.09-.16-.09.1.07.11.09-.02-.04-.08-.07-.11-.1-.03-.03-.06-.08-.1-.11.01.01.17.27.09.11-.04-.07-.07-.15-.11-.21.17.24.08.23.05.1-.02-.06-.04-.11-.05-.17,0-.03-.04-.12-.03-.15,0-.01.03.36.02.15,0-.08,0-.16,0-.24,0-.05.01-.1,0-.15,0-.16-.07.34-.01.12.02-.1.05-.2.08-.3.01-.04.03-.08.04-.12-.09.32-.09.2-.04.1.04-.07.12-.16.14-.23,0,.01-.21.24-.08.11.03-.03.05-.06.08-.09.04-.04.08-.07.11-.1.07-.06.03-.03-.13.1.04-.02.07-.05.11-.07.05-.03.1-.05.15-.08.15-.09-.29.09-.02.02.11-.03.14.01-.08,0,.04,0,.1,0,.14,0,.23-.02-.23-.07-.1-.02.05.02.11.03.16.04.14.03,0,.08-.11-.05.03.03.14.08.17.1.12.07-.03.07-.09-.07.01.02.08.07.1.09.04.04.08.09.12.13.11.12-.17-.27-.05-.06.05.08.09.16.14.25.12.22-.07-.23-.03-.07.02.06.04.11.05.17.01.05.03.26.02.04-.01-.23,0,0,0,.04,0,.06.03.3-.01.34l.02-.16s-.01.09-.02.13c-.01.07-.03.14-.05.21-.04.13-.07.3-.14.42.02-.03.12-.26.02-.05-.03.05-.05.11-.08.16-.07.13-.14.26-.22.39-.14.23-.3.45-.45.67s.15-.16.02-.03c-.01.01-.14.14-.14.14-.02-.03.27-.15.07-.06.12-.06.22-.08.35-.08-.21,0,.09.01.11.02l.17.07c-.08-.06-.08-.05,0,.01.16.07.01,0-.04-.06l-.05-.06c-.08-.1-.07-.08.05.07-.1-.07-.18-.25-.26-.36-.08-.12-.16-.25-.23-.38-.05-.1-.2-.29-.2-.39l.06.14s-.03-.08-.05-.12c-.03-.08-.06-.16-.08-.25-.02-.07-.03-.14-.05-.21-.06-.23,0,.19,0,.04,0-.07,0-.14,0-.21v-.08c.01-.14,0-.11-.02.08,0,0,.04-.18.03-.17.04-.16.11-.2-.04.06.05-.08.1-.16.14-.24-.14.27-.16.19-.09.12.04-.04.08-.08.12-.12.15-.15-.23.14-.1.07.05-.03.1-.06.15-.09.02-.01.11-.07.13-.07-.02-.01-.34.12-.09.04.02,0,.27-.06.27-.07,0,.02-.35.02-.17.03.05,0,.11,0,.16,0,.19,0-.19,0-.18-.03.02-.02.12.04.15.04-.2.03-.28-.15-.14-.06.17.12-.09-.1-.11-.1.03,0,.07.07.09.09.06.07.03.02-.11-.15.02.03.04.06.06.1.32.57,1.15.81,1.71.45s.79-1.1.45-1.71h0Z"/><path class="cls-1" d="m27.9,30.39s-.11-.14-.1-.17l.05.12s-.03-.09-.04-.14c-.02-.06-.13-.54-.05-.21-.08-.37-.06-.76-.17-1.12-.23-.79-.83-1.54-1.63-1.77-1.8-.53-2.78,1.56-3.08,2.98s-.22,2.98.46,4.25c.45.84,1.37,1.28,2.3,1.08.74-.16,1.31-.74,1.74-1.33.4-.55.66-1.24.88-1.88.26-.76.35-1.55.2-2.34-.28-1.52-1.76-2.64-3.29-2.36-1.35.25-2.18,1.67-2.43,2.91s-.17,2.85.89,3.79,2.46.93,3.64.26,1.85-1.82,1.98-3.12c.24-2.38-1.79-4.98-4.29-4.83-2.68.15-4.91,3.03-3.58,5.59,1.06,2.03,4.24,2.78,5.87,1.01.87-.95,1.18-2.39.73-3.61-.48-1.28-1.65-2.13-3.04-2.1s-2.58.8-3.03,2.08.12,2.66,1.13,3.44c.52.4,1.15.64,1.81.62s1.28-.56,1.25-1.25-.55-1.27-1.25-1.25c-.05,0-.37-.01-.14,0,.21.01-.04-.03-.09-.04-.12-.02.12.04.12.05,0,0-.14-.07-.13-.07-.03-.02-.06-.05-.1-.06-.11-.04.14.15.07.06-.05-.07-.13-.13-.19-.19-.15-.15.11.2.01,0-.04-.08-.09-.16-.13-.24-.07-.11.06.11.05.12,0,0-.04-.13-.05-.15,0-.02-.03-.14-.03-.15.01,0,.01.27.02.14,0-.07,0-.16,0-.23-.02-.11,0,.12-.03.14.01-.02.02-.12.03-.15,0-.04.03-.07.03-.11.02-.13-.11.19-.03.09.03-.03.06-.09.07-.13.04-.11-.07.1-.09.11.05-.02.11-.12.15-.16.02-.02.1-.07.11-.1,0,.01-.21.14-.11.09.07-.03.15-.09.22-.13.17-.1-.25.07.01,0,.07-.02.14-.04.22-.06.29-.07-.21,0,0,0,.09,0,.17,0,.26,0,.29,0-.2-.06,0,0,.07.02.14.04.21.06.18.05-.22-.13,0,.01.03.02.06.04.09.06.17.09-.08-.04-.07-.06,0,0,.18.18.2.2.1.09-.09-.08-.07-.09,0,0,.09.15.08.14.02.03.03.08.06.11.09.1-.07-.1-.05-.12,0,0,.09.29.09.31.07.22,0-.24,0-.01,0,.09,0,.19,0,.28,0,.01-.01.12,0,.12-.01,0,.05-.26.02-.13-.03.1-.05.21-.08.32,0,0-.04.12-.04.12-.02,0,.13-.22.05-.11-.05.07-.09.17-.14.25-.11.19.15-.15,0,0-.03.03-.06.06-.09.09-.15.16-.03-.01.06-.03-.05.01-.13.09-.18.11-.03.02-.11.05-.12.06,0,0,.26-.09.14-.06-.07.02-.13.05-.2.06-.03,0-.07.01-.1.02-.23.07.23,0,.09,0-.15,0-.3,0-.46,0-.22,0,.27.06.05,0-.09-.02-.19-.04-.28-.07-.06-.02-.15-.07-.2-.07.16,0,.22.11.1.04-.03-.02-.06-.03-.1-.05-.06-.03-.13-.07-.19-.11-.04-.02-.32-.2-.14-.09.17.11-.05-.05-.09-.09-.05-.05-.1-.1-.15-.16-.15-.15.13.21.02.03-.05-.08-.09-.16-.14-.24-.11-.18.07.24.02.04-.02-.08-.04-.17-.07-.24-.04-.11.03.13.01.14,0,0-.01-.18-.01-.17,0-.1,0-.2,0-.29,0-.14,0,.13-.02.13,0,0,.04-.18.04-.16,0-.02.06-.24.07-.24.01,0-.12.23-.05.11.03-.05.05-.1.07-.15.05-.09.1-.17.15-.25.12-.18-.16.18.04-.05.06-.06.12-.13.18-.18.03-.03.06-.06.09-.09.15-.15-.02.02-.05.03.08-.03.17-.12.25-.17.09-.05.17-.1.26-.14.2-.11-.2.06.02,0,.1-.03.19-.06.28-.08.04,0,.08-.02.12-.03.21-.05-.08.02-.08,0,0-.01.26,0,.3,0,.03,0,.1.02.13,0,0,0-.25-.05-.12-.02.09.02.19.04.28.06.04.01.08.03.12.04.03,0,.05.02.08.03.06.02.05.02-.04-.02-.13,0-.06-.03.03.02.03.02.07.04.11.06.07.04.14.09.2.13.18.11-.17-.16.03.03.07.06.14.13.2.2.04.04.07.08.11.12.04.04.12.08,0,0-.1-.07-.04-.06,0,0,.03.05.06.09.09.14.04.07.09.14.12.21.02.04.04.07.06.11.11.21,0-.04,0-.04.04,0,.15.46.16.51.02.08.03.16.05.24.03.13-.02-.13-.02-.13-.01,0,.01.18.01.2,0,.08,0,.16,0,.24,0,.04,0,.08,0,.12,0,.19-.04-.07.01-.09-.02,0-.04.21-.05.24-.01.04-.02.08-.03.12-.06.24-.03-.02.03-.04-.05.02-.22.39-.26.45-.07.12.06-.1.07-.09,0,0-.07.09-.08.09-.07.08-.15.15-.23.23,0,0-.09.08-.09.08-.01-.02.21-.13.09-.07-.08.04-.15.1-.23.15-.03.02-.2.08-.21.11,0-.02.29-.1.09-.04-.05.01-.1.03-.14.05-.06.02-.17.02-.22.05.03-.02.32-.01.11-.02-.03,0-.07,0-.11,0-.02,0-.09-.01-.11,0,0,0,.27.06.15.02-.05-.02-.36-.12-.16-.03s-.04-.04-.08-.06c-.14-.05.18.17.07.05-.03-.03-.06-.06-.1-.09-.16-.14.09.17-.02-.01-.03-.05-.06-.1-.09-.15-.09-.15.03,0,.02.07.01-.06-.06-.19-.08-.25s-.02-.11-.04-.17c-.01-.06.01-.15,0,0-.02.16,0,.04,0-.01,0-.06,0-.12,0-.18,0-.11,0-.21,0-.32.02-.3-.04.15,0-.07.02-.09.03-.18.05-.26.02-.1.05-.2.08-.29.02-.05.12-.24.1-.29,0,0-.1.22-.04.1.03-.05.05-.11.08-.16.04-.08.08-.15.13-.23.02-.03.07-.08.07-.11-.02.15-.14.15-.04.06.03-.03.06-.06.09-.09.02-.02.04-.04.06-.06.05-.04.04-.04-.03.02-.09-.02-.06.1,0,0l.07-.04-.15.06s.11-.04.12-.04c.15,0-.14,0-.13,0,.02,0,.1,0,.13,0,.16-.03-.24-.06-.08-.02,0,0,.12.03.12.03,0,.01-.24-.14-.07-.03.02.01.14.09.14.09-.02,0-.18-.16-.09-.06.06.06.12.12.18.19.1.1-.07-.07-.06-.08,0,0,.08.13.09.15.02.04.04.08.06.12.08.14-.06-.21-.03-.05,0,.01.06.29.07.3-.03-.01,0-.24-.02-.08,0,.05,0,.11,0,.17,0,.07-.01.15-.01.22,0-.02.04-.2,0-.06-.03.13-.05.26-.09.38-.07.24-.16.47-.24.7-.07.19.07-.16,0,.02-.02.05-.05.1-.07.16-.05.12-.1.23-.16.34-.04.08-.09.16-.14.24-.03.04-.05.08-.08.12-.08.13.05-.07.05-.07.01.02-.19.21-.22.23-.01.01-.1.07-.1.09.02-.1.22-.09.01-.03-.14.04.13-.03.12-.04,0,0-.09.03-.11.03-.14,0,.17-.02.15-.02.03,0,.31.07.12,0,.08.03.14.07.21.11.13.06.02,0-.02-.03.04.03.09.16.06.05-.03-.12-.07-.18-.02-.02-.07-.21-.14-.43-.19-.65-.02-.1-.04-.2-.06-.31-.03-.14,0,.06,0,.08-.02-.08-.02-.18-.02-.26-.02-.22-.02-.45,0-.67,0-.1.01-.21.02-.31.01-.13-.04-.12,0,.02-.01-.05.03-.16.04-.2.04-.22.1-.44.17-.65.02-.05.03-.1.05-.15,0-.02.07-.18.01-.04s0-.02.02-.04c.04-.08.07-.16.11-.23.05-.09.1-.18.15-.27.14-.23.03-.02-.1.05-.15.08-.33.07-.49.04.08.02.2.08-.08-.04.14.06.01,0-.05-.04.16.13-.08-.17.03.02,0,0,.09.14.09.16,0,.01-.07-.24-.04-.09.02.09.04.19.06.27.04.18-.02-.22,0-.03,0,.07.02.14.02.2.07.61.15,1.19.5,1.71s1.12.83,1.71.45c.54-.35.84-1.13.45-1.71h0Z"/><path class="cls-1" d="m36.5,61.7c1.3-4.59,4.03-8.63,7.75-11.61.53-.42.44-1.33,0-1.77-.52-.52-1.24-.42-1.77,0-4.04,3.23-6.99,7.74-8.4,12.71-.44,1.55,1.97,2.21,2.41.66h0Z"/><path class="cls-1" d="m49.13,45.19l-.1-1.29c-.05-.57-.36-1.03-.92-1.21-1.2-.39-2.54.28-3.16,1.34-.66,1.14-.38,2.57.54,3.47.87.85,2.2,1.19,3.35.76s2.13-1.37,2.44-2.58c.21-.82.07-1.66-.49-2.31-.36-.42-.94-.72-1.49-.8-1.22-.18-2.41.29-3.11,1.32s-.46,2.48.41,3.36c.48.49,1.1.76,1.78.83.64.06,1.24-.18,1.73-.58.4-.32.69-.85.79-1.34.14-.65.07-1.25-.2-1.85-.3-.66-1.07-1.28-1.82-1.18-.88.12-1.62.92-1.82,1.76-.15.63.2,1.38.87,1.54s1.37-.19,1.54-.87c.01-.06.03-.12.05-.17l-.13.3c.02-.06.05-.11.08-.16.09-.2-.22.23-.03.04.04-.04.21-.19.03-.04s.03,0,.08-.03l-.3.13s.07-.03.11-.04l-.96-.13c.06.03.11.07.17.09.08.03-.2-.18-.15-.12.02.02.05.05.08.07,0,0,.06.06.05.06-.01.02-.19-.29-.12-.15.03.06.07.12.1.18l-.13-.3c.05.12.08.24.1.37l-.04-.33c.01.13.01.26,0,.39l.04-.33c-.02.14-.06.28-.11.42l.13-.3c-.03.06-.05.12-.09.17-.02.03-.05.06-.06.09,0-.02.23-.27.1-.14-.02.02-.04.04-.06.06-.13.13.11-.1.14-.1-.06.01-.13.08-.19.1l.3-.13c-.1.04-.2.07-.3.08l.33-.04c-.11.01-.21.01-.32,0l.33.04c-.12-.02-.24-.05-.36-.1l.3.13c-.09-.04-.18-.09-.26-.14-.2-.12.1.08.1.08,0,0-.11-.1-.12-.11-.03-.03-.06-.07-.09-.1-.1-.1.18.26.08.1-.06-.09-.11-.19-.15-.29l.13.3c-.05-.12-.08-.24-.1-.37l.04.33c-.01-.11-.01-.22,0-.33l-.04.33c.02-.12.05-.23.1-.35l-.13.3s.16-.23.15-.26c0,.03-.24.27-.09.12.04-.04.07-.07.11-.11.03-.03.07-.05.1-.08-.25.24-.19.14-.09.08.09-.06.18-.1.27-.14l-.3.13c.16-.07.32-.11.49-.14l-.33.04c.15-.02.31-.02.46,0l-.33-.04c.15.02.3.06.44.12l-.3-.13c.05.02.11.05.16.08.03.02.05.03.08.05.08.05.04.02-.13-.1.03.05.11.08.13.13l-.12-.15s.04.07.06.11l-.13-.3c.04.1.07.2.08.3l-.04-.33c.01.13.01.26,0,.39l.04-.33c-.03.17-.08.34-.15.5l.13-.3c-.07.15-.15.29-.24.43-.12.2.2-.23.05-.06-.05.06-.11.12-.17.18s-.12.11-.18.17c-.16.14.25-.17.06-.05-.14.09-.27.17-.42.24l.3-.13c-.19.08-.38.13-.58.17l.33-.04c-.18.02-.36.03-.54,0l.33.04c-.18-.03-.34-.07-.51-.14l.3.13c-.11-.05-.21-.1-.31-.17s-.19-.18.06.06c-.04-.04-.09-.08-.13-.12s-.08-.08-.12-.13c-.14-.15.17.26.06.07-.06-.1-.12-.2-.16-.3l.13.3c-.06-.14-.1-.29-.12-.44l.04.33c-.01-.11-.01-.22,0-.34l-.04.33c.02-.13.05-.25.1-.37l-.13.3c.04-.09.09-.18.14-.27.12-.2-.08.1-.08.1,0,0,.1-.11.11-.12.03-.03.07-.06.1-.09.1-.1-.26.18-.1.08.09-.06.18-.11.28-.16l-.3.13c.12-.05.23-.08.36-.1l-.33.04c.13-.02.25-.02.37,0l-.33-.04c.07.01.14.03.21.05l-.92-1.21.1,1.29c.03.34.12.64.37.88.22.22.57.38.88.37.63-.03,1.31-.55,1.25-1.25h0Z"/><path class="cls-1" d="m45.24,72.56c2.81-2.08,4.86-5.05,5.69-8.46.15-.63-.2-1.38-.87-1.54s-1.37.19-1.54.87c-.09.37-.2.74-.32,1.11-.06.17-.12.34-.18.51-.04.09-.07.19-.11.28-.08.19.07-.15-.02.04-.31.7-.68,1.38-1.1,2.02-.1.15-.2.3-.31.45-.05.07-.09.13-.14.2-.23.31.08-.09-.06.08-.24.3-.49.59-.75.87-.25.26-.51.52-.78.76-.15.14-.3.27-.46.4-.06.05-.13.1-.19.15.17-.14-.13.1-.13.1-.52.39-.84,1.1-.45,1.71.33.52,1.15.87,1.71.45h0Z"/><path class="cls-1" d="m52.76,56.92v-1.47c-.01-.54-.4-1.06-.93-1.21-1.22-.32-2.49.29-3.14,1.34-.6.98-.5,2.38.41,3.14.37.32.81.57,1.3.66.24.04.5.08.75.06s.49-.05.71-.13c.35-.13.58-.27.87-.51.06-.05.1-.1.15-.16.11-.13.23-.27.3-.42.28-.55.36-1.19.17-1.78-.16-.48-.43-.95-.83-1.28-.47-.38-1.02-.66-1.64-.64-.37.02-.69.1-1.02.27-.14.07-.27.18-.39.28-.05.04-.1.09-.14.14-.23.27-.36.5-.48.84-.07.22-.1.46-.11.69-.01.47.12.93.33,1.35.1.2.25.39.4.55s.34.3.54.4c.31.15.6.24.96.24s.64-.09.95-.23c.05-.02.1-.05.14-.08.13-.09.27-.19.37-.3.15-.16.28-.33.37-.53.19-.4.31-.85.28-1.3-.04-.51-.17-.96-.49-1.37-.37-.48-.9-.76-1.51-.78-.43-.02-.91.23-1.19.55-.32.36-.48.77-.52,1.25-.01.18.02.37.06.54.02.08.06.16.09.24.04.09.07.18.12.26.18.27.42.49.75.57.3.08.7.05.96-.13s.5-.43.57-.75.06-.69-.13-.96c-.02-.03-.04-.07-.06-.11l.13.3s-.03-.1-.04-.15l.04.33c0-.06,0-.12,0-.18l-.04.33c.01-.06.03-.12.05-.18l-.13.3c.03-.06.06-.11.09-.16l-.2.25s.07-.07.11-.11l-.25.2s.07-.04.1-.06l-.3.13s.04-.02.06-.02l-.33.04s.05,0,.07,0l-.33-.04c.07,0,.13.03.19.05l-.3-.13c.05.02.1.05.15.08l-.25-.2c.06.04.1.09.15.15l-.2-.25c.05.07.09.15.13.23l-.13-.3c.04.1.07.2.08.31l-.04-.33c.02.13.02.26,0,.4l.04-.33c-.02.11-.05.23-.09.33l.13-.3c-.04.08-.08.16-.13.23l.2-.25c-.04.06-.09.11-.15.15l.25-.2c-.05.04-.11.07-.17.1l.3-.13c-.06.03-.13.04-.2.05l.33-.04c-.07,0-.15,0-.22,0l.33.04c-.07,0-.14-.03-.21-.05l.3.13c-.07-.03-.14-.07-.2-.12l.25.2c-.07-.05-.13-.12-.18-.18l.2.25c-.07-.09-.13-.19-.17-.3l.13.3c-.05-.12-.09-.25-.11-.39l.04.33c-.02-.12-.02-.25,0-.37l-.04.33c.01-.1.04-.21.08-.3l-.13.3c.03-.07.07-.14.12-.2l-.2.25c.04-.06.09-.11.15-.15l-.25.2c.06-.05.13-.08.2-.12l-.3.13c.07-.03.15-.05.23-.06l-.33.04c.09-.01.17-.01.25,0l-.33-.04c.1.01.2.04.3.08l-.3-.13c.11.05.21.11.3.18l-.25-.2c.1.08.19.17.27.28l-.2-.25c.08.1.14.22.2.34l-.13-.3c.04.11.08.22.09.34l-.04-.33c.01.1.01.19,0,.29l.04-.33c-.01.09-.04.17-.07.25l.13-.3c-.04.08-.08.15-.13.23l.2-.25c-.06.07-.12.13-.19.19l.25-.2c-.08.06-.16.11-.25.15l.3-.13c-.11.04-.22.07-.34.09l.33-.04c-.15.02-.29.02-.44,0l.33.04c-.14-.02-.27-.06-.4-.11l.3.13c-.13-.05-.25-.12-.36-.21l.25.2c-.09-.07-.16-.14-.23-.23l.2.25c-.05-.07-.1-.15-.14-.23l.13.3c-.04-.09-.07-.19-.08-.29l.04.33c-.01-.11-.01-.22,0-.33l-.04.33c.02-.12.05-.24.1-.35l-.13.3c.05-.13.12-.24.2-.35l-.2.25c.09-.12.2-.22.31-.32l-.25.2c.12-.09.25-.17.38-.23l-.3.13c.13-.05.26-.09.39-.11l-.33.04c.12-.02.25-.02.37,0l-.33-.04c.06,0,.11.02.17.03l-.92-1.21v1.47c.01.32.15.66.38.88s.57.38.88.37c.67-.03,1.25-.55,1.25-1.25h0Z"/><path class="cls-1" d="m32.07,107.88c.33-3.91-.21-7.81-.73-11.68-.45-3.37-1.01-6.78-2.58-9.84-2.96-5.77-9.16-8.46-15.01-10.37-1.53-.5-2.19,1.91-.66,2.41,5.39,1.76,11.12,4.17,13.7,9.6,1.36,2.86,1.78,6.1,2.19,9.21.47,3.54.89,7.1.59,10.67-.13,1.6,2.37,1.59,2.5,0h0Z"/><path class="cls-1" d="m8.82,70.89c-.89-1.36-2.77-1.65-4.11-.77-1.1.72-1.91,2.02-2.14,3.31s-.08,2.68.97,3.52c1.22.99,3.02.86,4.25-.05,1.89-1.4,2.68-4.25,1.1-6.18s-4.9-1.14-5.95.98c-.61,1.22-.45,2.57.42,3.61.69.83,1.81,1.27,2.87,1.32,1.12.05,2.42-.46,2.98-1.48.64-1.14.34-2.71-.4-3.73s-1.93-1.82-3.25-1.76c-1.24.06-2.33.77-2.94,1.85-.54.96-.73,2.16-.41,3.23.38,1.27,1.47,2.26,2.79,2.46.81.12,1.66.03,2.35-.43.64-.43,1.14-1.09,1.33-1.85.35-1.41-.37-2.79-1.75-3.25-1.05-.35-2.35-.07-3.13.73-1.14,1.19-.75,3.06.55,3.95.25.17.53.29.83.34.53.09.96,0,1.46-.21.27-.11.5-.48.57-.75.08-.3.05-.7-.13-.96s-.43-.5-.75-.57c-.35-.08-.64-.01-.96.13.32-.14.19-.08.11-.06.34-.08.23-.02.11-.02-.15,0,.29.08.15.02-.04-.01-.08-.03-.12-.03-.14-.03.23.15.12.05-.02-.02-.11-.08-.14-.09.03,0,.22.21.1.07-.04-.04-.08-.08-.12-.12-.11-.1.16.27.06.06-.02-.04-.04-.08-.07-.12-.1-.18.11.28,0-.02-.06-.18.03.1.01.13,0-.02,0-.11,0-.13-.01-.19,0,.11-.02.13,0,0,.04-.14.04-.15.04.21-.14.27-.07.16.02-.03.03-.06.05-.09.13-.24-.2.19-.03.04.04-.04.24-.21.04-.05s.05-.02.11-.05c.21-.12-.3.09-.06.03.08-.02.15-.04.23-.06.03,0,.08-.02.1-.02.02,0-.37.02-.18.03.09,0,.18,0,.26,0,.02,0,.09,0,.1,0,.02,0-.36-.08-.18-.02.06.02.13.03.2.05.28.07-.25-.14-.04-.02.06.04.13.09.19.12-.28-.13-.2-.18-.12-.08.02.02.04.05.07.07.11.09-.17-.26-.1-.14.02.03.04.06.05.09.07.1.03.19-.05-.14,0,.04.03.08.04.12s.02.11.03.14c-.06-.1-.02-.29-.02-.05,0,.04-.01.1,0,.14,0-.03.07-.32.01-.12-.02.09-.06.18-.08.27.05-.25.09-.2.04-.1-.02.04-.05.08-.07.13,0,.01-.08.1-.08.12.12-.16.14-.18.06-.08l-.05.05s-.07.07-.1.1c-.14.14.06-.06.08-.06,0,0-.39.21-.17.11.17-.08.02-.01-.03,0s-.1.03-.15.04c-.23.05-.01-.06.06,0-.03-.02-.16,0-.19,0-.05,0-.1,0-.16,0-.17,0,.32.08.06,0-.1-.03-.2-.05-.3-.08-.09-.03-.14-.1.08.04-.04-.03-.1-.04-.14-.07s-.09-.05-.14-.08c-.03-.02-.07-.04-.1-.06-.08-.05-.04-.03.1.08-.04-.06-.13-.12-.19-.17-.03-.03-.05-.06-.08-.09-.13-.13.08.11.09.12-.04-.07-.1-.14-.14-.21-.02-.03-.03-.07-.05-.1-.11-.2.03.11.05.12-.08-.03-.12-.41-.14-.49-.04-.2.03.35.01.05,0-.1,0-.19,0-.29,0-.03,0-.21.02-.23,0,0-.06.35-.02.16,0-.04.01-.08.02-.11.04-.17.1-.33.15-.5-.11.37-.06.13,0,0,.04-.07.07-.13.12-.2.06-.1.26-.29-.01,0,.06-.06.11-.13.17-.19s.13-.11.19-.17c0,0-.27.19-.12.09.03-.02.06-.04.09-.06.06-.04.13-.07.2-.11.16-.09-.13.06-.14.06.05-.01.11-.04.16-.06.08-.02.16-.03.24-.06-.23.09-.26.02-.14.02.05,0,.11,0,.16,0,.05,0,.37.03.12,0s.12.03.18.05c.04.01.35.12.12.04s.08.05.14.08c.07.04.14.12.22.14-.02,0-.24-.2-.1-.07.05.04.1.09.15.13.06.06.13.13.18.19.03.03.06.08.09.1-.2-.17-.13-.18-.07-.09.11.17.19.35.3.52-.15-.24-.08-.21-.05-.12.02.05.04.1.05.16.03.08.04.17.06.25.03.13-.03.19-.01-.11,0,.04,0,.09,0,.13,0,.1-.02.22,0,.32,0-.02.06-.33.02-.14-.01.04-.02.08-.03.13-.02.08-.07.17-.08.25.02-.08.12-.28.2-.34-.03.02-.05.06-.08.08-.03.03-.05.05-.08.08-.16.15,0-.01.08-.06-.06.03-.12.08-.18.12-.05.03-.33.16-.09.06s-.03,0-.08.02c-.09.03-.18.04-.27.06-.15.03.32-.03.17-.02-.05,0-.09,0-.14.01-.07,0-.15,0-.22,0s-.15-.01-.22-.02c.43.02.13.02,0-.01-.15-.03-.29-.09-.43-.14.4.13.12.05.02,0-.07-.04-.15-.08-.22-.13-.26-.17.19.18.01.01-.06-.06-.12-.11-.18-.17-.1-.1-.16-.27.02.04-.04-.08-.1-.15-.14-.23,0-.01-.05-.1-.05-.1.01,0,.12.33.06.15-.02-.07-.05-.14-.06-.21-.07-.29,0,.25,0,.04,0-.1,0-.2,0-.3,0-.2-.01.17-.02.16,0,0,.02-.1.02-.11.02-.09.05-.17.08-.25.04-.14-.13.26-.06.14.03-.04.04-.09.07-.13.04-.08.1-.15.14-.22.08-.13-.22.25-.07.09.03-.03.05-.06.08-.09.05-.06.11-.12.17-.17.03-.03.07-.05.09-.08-.19.21-.2.14-.11.08s.17-.11.26-.17c.07-.04.14-.08.22-.11.17-.09-.12.05-.13.05.04,0,.08-.03.11-.04.09-.03.17-.06.26-.08.04,0,.08-.02.12-.03.26-.06-.23.01-.1.01.08,0,.16-.01.24-.01.15,0,.37.08-.01-.02.08.02.15.03.23.05.04.01.07.02.11.03.21.06-.27-.14-.08-.04.07.04.14.08.21.12.16.09-.09-.08-.1-.09.03.03.06.05.09.08.06.05.11.11.17.17.03.03.16.19.01,0s-.03-.03,0,.01c.05.07.08.15.12.22.08.12-.11-.28-.06-.14.01.04.03.07.04.11.03.08.05.16.07.25,0,.04.01.07.02.11.04.2-.02-.28-.02-.13,0,.17.02.33,0,.49-.02.31.05-.24.01-.04-.02.1-.04.2-.06.29-.02.08-.04.16-.07.23-.02.06-.14.36-.04.14s-.03.06-.05.1c-.05.09-.1.18-.15.27-.04.07-.09.13-.14.2-.09.13.21-.25.06-.08-.03.03-.05.06-.08.09-.12.14-.27.25-.4.38,0,0,.27-.19.11-.09-.03.02-.07.05-.1.07-.07.04-.14.08-.21.12-.04.02-.07.04-.11.05-.2.1.25-.09.1-.04-.12.04-.24.08-.37.11-.02,0-.31.07-.09.03.18-.04,0,0-.05,0-.06,0-.12,0-.17,0-.26,0,.02.03.03.02,0,0-.18-.04-.17-.04-.2-.04.08,0,.06.04,0,0-.14-.07-.14-.07-.11-.07-.15-.19.04.05-.05-.06-.12-.11-.18-.17-.08-.08,0-.11.08.11-.01-.03-.05-.07-.07-.1-.02-.04-.04-.07-.06-.11-.1-.16.05.11.05.13-.02-.1-.07-.2-.09-.3,0-.04-.02-.08-.03-.13-.04-.19.02.12.02.14.01-.09-.01-.21-.02-.3,0-.1,0-.2.01-.31,0-.04.01-.09.01-.14,0,.08-.05.3,0,.09.04-.19.09-.38.15-.57.01-.04.03-.09.05-.13.06-.19-.04.1-.05.11.06-.1.1-.22.16-.32.02-.04.32-.56.34-.55,0,0-.19.23-.02.03.03-.04.07-.08.11-.12s.07-.08.11-.11c.03-.03.06-.05.09-.08.08-.07.08-.07,0,0l-.06.05s.06-.05.1-.07c.04-.03.09-.06.13-.08s.09-.05.14-.07c.15-.09-.29.09-.06.03.08-.02.19-.04.27-.07-.02,0-.32.02-.12.02.07,0,.14,0,.21,0,.13,0,.08.07-.12-.02.04.02.1.02.14.03.05.01.09.03.13.04.19.05-.09-.02-.11-.05,0,.01.1.06.12.07.17.08-.07-.04-.09-.08.01.03.09.1.12.12.13.08-.18-.26-.05-.06.36.55,1.12.83,1.71.45.55-.35.83-1.12.45-1.71h0Z"/><path class="cls-1" d="m27.21,83.73c-1.68-3.47-3.36-6.95-5.05-10.42-.29-.61-1.16-.77-1.71-.45-.62.36-.74,1.1-.45,1.71,1.68,3.47,3.36,6.95,5.05,10.42.29.61,1.16.77,1.71.45.62-.36.74-1.1.45-1.71h0Z"/><path class="cls-1" d="m21.74,66.9c-.44-.66-1.14-1.06-1.95-1.05-.69,0-1.4.29-1.89.78-.57.57-.8,1.41-.59,2.19.18.69.71,1.29,1.35,1.59.78.37,1.62.41,2.41.04.64-.3,1.15-.99,1.28-1.68.14-.74.05-1.51-.34-2.17s-1.04-1.14-1.78-1.27c-.79-.13-1.62,0-2.29.48s-1.17,1.1-1.31,1.89,0,1.61.45,2.29,1.08,1.18,1.86,1.44c1.38.46,2.94-.28,3.57-1.57s.56-2.85-.51-3.84-2.62-1.08-3.89-.45-1.94,2.22-1.53,3.61,1.7,2.54,3.19,2.52,2.85-1.19,3.21-2.63c.2-.78.11-1.57-.25-2.29-.29-.57-.82-1.08-1.39-1.37-1.31-.66-2.94-.58-4.02.49-.96.95-1.29,2.54-.79,3.79.29.73.77,1.36,1.48,1.73.6.32,1.31.48,1.99.42.8-.08,1.5-.35,2.13-.86.53-.42.92-1.08,1.06-1.74.31-1.43-.22-3.02-1.51-3.8s-2.96-.44-3.96.58c-.53.54-.9,1.32-.86,2.09s.4,1.63,1.03,2.15c.7.58,1.58.87,2.48.61.63-.18,1.08-.89.87-1.54s-.86-1.07-1.54-.87c-.07.02-.14.03-.21.05l.33-.04c-.11.01-.21,0-.31,0l.33.04c-.12-.02-.24-.05-.35-.1l.3.13c-.13-.06-.25-.13-.37-.22l.25.2c-.11-.09-.22-.19-.31-.31l.2.25c-.1-.13-.18-.27-.25-.42l.13.3c-.06-.14-.09-.27-.12-.42l.04.33c-.02-.13-.02-.25,0-.38l-.04.33c.02-.14.06-.28.11-.42l-.13.3c.06-.13.13-.25.22-.37l-.2.25c.11-.14.23-.26.37-.37l-.25.2c.14-.11.3-.2.46-.27l-.3.13c.18-.08.37-.13.56-.16l-.33.04c.18-.02.35-.03.53,0l-.33-.04c.16.02.31.06.46.12l-.3-.13c.14.06.26.13.38.22l-.25-.2c.13.1.24.22.35.35l-.2-.25c.12.16.22.33.3.51l-.13-.3c.08.2.14.41.16.63l-.04-.33c.02.2.02.4,0,.6l.04-.33c-.03.2-.08.39-.15.58l.13-.3c-.07.15-.15.3-.25.43l.2-.25c-.11.15-.24.27-.39.39l.25-.2c-.16.12-.33.22-.52.3l.3-.13c-.2.08-.41.14-.63.17l.33-.04c-.22.03-.44.03-.65,0l.33.04c-.22-.03-.42-.08-.63-.17l.3.13c-.17-.07-.32-.17-.47-.28l.25.2c-.12-.1-.22-.2-.32-.32l.2.25c-.11-.14-.2-.3-.27-.47l.13.3c-.08-.2-.14-.41-.17-.62l.04.33c-.02-.22-.02-.43,0-.65l-.04.33c.03-.21.09-.42.17-.62l-.13.3c.08-.18.18-.35.3-.51l-.2.25c.1-.13.22-.24.35-.34l-.25.2c.13-.1.27-.18.42-.24l-.3.13c.16-.07.33-.11.51-.13l-.33.04c.21-.02.42-.02.63,0l-.33-.04c.21.03.41.09.61.17l-.3-.13c.19.08.37.19.54.32l-.25-.2c.14.11.26.23.37.37l-.2-.25c.1.13.18.27.24.41l-.13-.3c.06.14.1.29.12.44l-.04-.33c.02.19.02.37,0,.55l.04-.33c-.03.19-.08.36-.15.54l.13-.3c-.08.19-.18.37-.31.53l.2-.25c-.13.16-.27.31-.43.44l.25-.2c-.15.11-.31.21-.48.28l.3-.13c-.16.06-.32.11-.49.13l.33-.04c-.15.02-.3.02-.46,0l.33.04c-.16-.02-.32-.07-.47-.13l.3.13c-.17-.07-.32-.17-.46-.28l.25.2c-.14-.12-.27-.24-.39-.39l.2.25c-.13-.17-.24-.36-.33-.56l.13.3c-.07-.19-.13-.37-.15-.57l.04.33c-.02-.16-.02-.33,0-.49l-.04.33c.02-.15.06-.29.11-.43l-.13.3c.06-.14.14-.27.23-.4l-.2.25c.09-.12.2-.22.32-.32l-.25.2c.15-.11.3-.2.47-.28l-.3.13c.2-.08.41-.14.62-.17l-.33.04c.2-.02.4-.03.6,0l-.33-.04c.18.03.36.07.52.14l-.3-.13c.15.07.29.15.43.25l-.25-.2c.11.09.2.18.29.29l-.2-.25c.08.11.15.23.21.35l-.13-.3c.06.15.11.31.13.48l-.04-.33c.03.2.02.39,0,.59l.04-.33c-.03.2-.08.39-.16.58l.13-.3c-.08.18-.18.35-.3.51l.2-.25c-.1.13-.22.25-.35.35l.25-.2c-.12.09-.25.17-.39.23l.3-.13c-.14.05-.27.09-.42.11l.33-.04c-.14.02-.27.01-.41,0l.33.04c-.17-.02-.33-.07-.49-.14l.3.13c-.16-.07-.31-.16-.45-.26l.25.2c-.17-.13-.31-.28-.44-.44l.2.25c-.1-.14-.19-.29-.26-.45l.13.3c-.07-.16-.11-.32-.14-.49l.04.33c-.02-.15-.02-.31,0-.46l-.04.33c.02-.14.06-.27.11-.4l-.13.3c.06-.14.14-.27.24-.4l-.2.25c.1-.12.21-.23.33-.33l-.25.2c.14-.1.29-.19.44-.26l-.3.13c.16-.07.32-.11.49-.14l-.33.04c.15-.02.3-.02.45,0l-.33-.04c.14.02.26.06.39.11l-.3-.13c.1.05.19.1.28.17l-.25-.2c.1.08.18.16.26.26l-.2-.25c.08.11.15.23.21.36l-.13-.3c.06.15.1.29.12.45l-.04-.33c.02.15.02.31,0,.46l.04-.33c-.02.14-.06.27-.11.39l.13-.3c-.04.1-.1.19-.16.27l.2-.25c-.07.09-.14.16-.23.23l.25-.2c-.07.05-.15.1-.23.13l.3-.13c-.11.05-.22.07-.34.09l.33-.04c-.12.01-.24.01-.35,0l.33.04c-.15-.02-.29-.06-.43-.12l.3.13c-.12-.05-.24-.12-.35-.2l.25.2c-.09-.07-.17-.15-.25-.25l.2.25c-.06-.08-.11-.17-.15-.26l.13.3c-.03-.08-.06-.16-.07-.25l.04.33c-.01-.1-.01-.2,0-.3l-.04.33c.01-.08.03-.15.06-.23l-.13.3c.04-.09.08-.16.14-.24l-.2.25c.07-.08.14-.16.23-.22l-.25.2c.1-.07.2-.13.32-.18l-.3.13c.13-.05.26-.09.39-.11l-.33.04c.12-.01.24-.01.36,0l-.33-.04c.09.01.18.04.26.07l-.3-.13c.07.03.14.07.2.11l-.25-.2c.06.05.12.1.17.17l-.2-.25s.03.04.05.07c.36.54,1.12.83,1.71.45.54-.35.84-1.13.45-1.71h0Z"/><path class="cls-1" d="m66.42,63.71c-1-.19-1.87.2-2.45,1.02-.48.68-.57,1.58-.25,2.34.64,1.52,2.77,2.03,4.1,1.09,1.41-1,1.85-2.98,1.08-4.52-.71-1.42-2.49-1.74-3.81-1.01s-1.81,2.54-.89,3.81c.45.61,1.09,1.11,1.85,1.27.89.18,1.73-.02,2.43-.61,1.09-.92,1.31-2.65.64-3.87-.72-1.3-2.45-1.8-3.81-1.29-.72.27-1.39.75-1.74,1.46s-.42,1.42-.3,2.18c.24,1.45,1.44,2.58,2.9,2.71s2.96-.95,3.45-2.34c.53-1.48-.3-3.29-1.66-4.02-2.12-1.13-5.19.03-5.83,2.41-.42,1.56.35,3.15,1.64,4.04s3.02.71,4.11-.37c1.02-1,1.4-2.65.67-3.93-.68-1.19-2.17-1.62-3.45-1.3-1.4.36-2.39,1.69-2.07,3.15.28,1.29,1.64,2.23,2.92,2.23.67,0,1.38-.27,1.82-.8s.53-1.28,0-1.77c-.46-.43-1.32-.53-1.77,0-.04.05-.27.25-.07.1.18-.14.04-.04,0,0-.11.07-.07-.06.16-.06-.04,0-.17.03-.2.06.15-.1.33-.02.15-.02-.04,0-.09,0-.13,0-.31-.01.27.08.04,0-.08-.02-.16-.05-.24-.07-.18-.06.15.05.14.06,0,0-.09-.04-.1-.05-.05-.03-.36-.24-.16-.09s-.04-.05-.08-.09c-.02-.03-.05-.06-.07-.08,0,0,.18.27.1.12-.03-.06-.16-.32-.07-.09.12.29-.05-.33,0,0s-.01-.11.01-.11-.08.35-.02.16c.01-.03.02-.07.03-.11.04-.18-.04.15-.07.15,0,0,.05-.11.06-.12.02-.03.04-.06.06-.09.06-.1-.24.25-.06.09.12-.11.27-.16-.03,0,.06-.03.12-.08.18-.11.26-.14-.27.08-.03,0,.09-.03.18-.05.26-.07.26-.06-.34.02-.03,0,.07,0,.15,0,.22,0,.05,0,.09,0,.14,0,.15,0-.31-.06-.17-.02.1.03.2.05.29.08.18.06-.3-.15-.05-.02.06.03.12.08.18.12-.3-.17-.18-.16-.11-.07.03.03.06.08.09.1-.01,0-.18-.27-.09-.12.03.05.06.11.09.16.06.1-.01.13-.05-.13,0,.04.03.08.04.12.01.04.02.08.03.12.06.22-.01-.28-.01-.12,0,.09,0,.18,0,.28,0,.11-.07.16.02-.15-.02.06-.02.12-.04.18-.02.08-.06.16-.08.24.04-.24.11-.23.05-.12-.02.05-.05.1-.07.14-.04.08-.12.16-.15.24,0-.02.21-.24.08-.1-.04.05-.09.09-.13.14-.03.03-.06.06-.09.09-.13.13.09-.07.1-.08-.08.04-.16.11-.24.15-.1.06-.2.04.1-.03-.04,0-.08.03-.12.04-.04.01-.08.02-.12.03-.14.03-.23-.01.08,0-.09,0-.2,0-.29,0-.25,0,.25.05.08.01-.05-.01-.09-.02-.14-.03-.06-.01-.11-.03-.17-.05-.09-.03-.15-.1.1.05-.1-.06-.21-.11-.32-.17-.02-.01-.09-.07-.12-.08.18.05.18.15.06.03-.08-.07-.15-.16-.23-.23-.09-.09,0-.09.06.08,0-.03-.07-.1-.08-.12-.07-.1-.12-.21-.18-.32-.1-.18.04.07.04.1,0-.04-.05-.13-.06-.17-.03-.1-.03-.23-.07-.32.01.02.02.32.02.11,0-.05,0-.1,0-.15,0-.04,0-.09,0-.13,0-.23-.06.31-.02.11.02-.08.04-.16.06-.24,0-.02.04-.13.05-.13.01,0-.15.31-.06.15.03-.06.07-.13.1-.19.02-.03.04-.06.06-.09.12-.18,0,.01-.07.07.12-.12.22-.25.35-.36.22-.19-.19.13-.03.02.08-.05.16-.11.24-.15s.17-.09.25-.13c.18-.09-.32.12-.03.02.17-.06.35-.1.52-.14.26-.06-.35.03-.02,0,.07,0,.15,0,.23,0,.08,0,.17,0,.25.01.06,0,.2.02-.03,0-.25-.03-.03,0,.02.01.08.02.16.04.24.07.27.09-.21-.11-.04-.02.07.04.15.07.22.12.04.02.08.06.12.08-.05-.02-.25-.21-.1-.07.06.06.12.12.18.18.1.11-.01.07-.03-.05,0,.03.08.11.1.14.04.06.07.12.11.19.03.06.05.21.03.05-.03-.2.01.07.02.1l.02.08c.02.11.02.11,0,0v-.08c0,.06,0,.12,0,.17,0,.05,0,.09,0,.14,0,.2,0-.11.02-.13-.02.03-.02.1-.03.13-.01.05-.04.11-.05.16-.02.15.13-.24.05-.11-.05.07-.17.24-.19.32,0-.02.21-.23.07-.09-.03.03-.06.07-.09.1-.04.04-.31.27-.13.13s-.11.07-.16.09c-.04.02-.08.04-.12.06-.2.11.28-.08.05-.02-.09.02-.17.05-.26.07-.19.05.11-.02.13-.01-.05,0-.12,0-.17,0-.04,0-.09,0-.13,0-.18,0-.08-.09.1.02-.03-.02-.11-.02-.13-.03-.13-.04-.2-.12.06.04-.07-.04-.15-.07-.22-.12-.03-.02-.07-.05-.1-.07.26.12.17.15.09.06-.06-.06-.13-.16-.19-.2.01,0,.18.26.08.1-.03-.05-.07-.1-.1-.16-.04-.07-.07-.15-.11-.22.19.33.04.1,0-.03-.03-.09-.04-.19-.06-.28.1.39.02.1.02-.04,0-.04,0-.08,0-.12,0-.21-.02.16-.02.15-.02-.06.06-.24.07-.3.03-.1.1-.11-.06.13.02-.03.04-.08.06-.11.02-.04.04-.07.06-.11.1-.19-.2.21-.04.05.05-.05.3-.25.11-.13s.1-.06.15-.08c.03-.02.09-.04.12-.06-.02.01-.3.11-.12.05.11-.03.21-.06.32-.09.19-.05-.12.02-.14.02.05,0,.11,0,.16-.01.1,0,.2.02.29.01-.02,0-.33-.07-.14-.01.04.01.08.02.13.03s.08.03.12.04c.22.06-.25-.14-.06-.02.04.02.33.21.14.08-.2-.14.07.1.11.13-.02-.01-.17-.26-.08-.1.02.04.04.07.06.11.02.04.11.23.02.02s-.02-.03,0,.02.07.39.04.14,0,.08,0,.14c-.01.31.06-.22.01-.02-.02.1-.05.2-.08.3-.06.22.13-.23.04-.1-.03.04-.05.09-.07.14-.02.04-.04.07-.06.1-.06.1-.1.04.09-.11-.06.05-.12.12-.17.17-.16.15.22-.12.08-.07-.05.02-.12.06-.16.09-.12.08.26-.06.12-.05-.03,0-.14.02-.16.04.02-.01.33-.02.14-.02-.04,0-.09,0-.13,0-.19.01.11.01.14.03-.05-.02-.11-.02-.16-.03-.04-.01-.08-.03-.13-.04-.11-.02.28.16.05.02-.07-.04-.17-.13-.26-.16.03,0,.23.21.1.07-.03-.03-.06-.06-.1-.09-.02-.02-.06-.08-.09-.1.2.14.13.2.06.07-.02-.05-.05-.1-.08-.14-.1-.18.05.22.04.09,0-.03-.02-.13-.04-.16.01.02.01.33.02.14,0-.04,0-.09,0-.13,0-.19,0,.12-.02.14.02-.03.03-.1.04-.14.02-.14-.14.26-.06.14.02-.04.05-.08.07-.12.09-.17-.18.19-.08.09.06-.05.13-.12.18-.18-.16.2-.21.15-.12.09.03-.02.06-.04.1-.06.04-.02.09-.04.13-.07.13-.08-.32.11-.11.05.09-.03.18-.05.28-.08.19-.05-.35.02-.05.01.07,0,.37.03.11,0-.32-.04.1.02.1.04,0,.02-.31-.16-.15-.06.04.03.1.07.14.09-.02,0-.23-.22-.12-.09,0,0,.06.08.08.08-.14-.06-.11-.18-.05-.05,0,.02.15.27.05.08-.08-.16,0,0,.01.05.02.07.03.14.05.21.03.09,0,.21,0-.09,0,.07.01.15.01.22,0,.09-.04.22-.01.3-.05-.17.04-.26,0-.08,0,.05-.02.1-.03.14-.02.06-.04.12-.05.18-.04.13-.08.03.04-.09-.07.07-.12.23-.18.32-.11.17.04-.07.06-.08-.03.02-.07.08-.1.11-.04.04-.21.15-.04.05s.02-.02-.02,0c-.04.02-.12.05-.15.08.02-.02.3-.1.12-.05-.04.01-.08.03-.13.04-.03,0-.06.01-.1.02-.1.02-.04.01.17-.02-.08-.01-.19,0-.26,0-.24,0,.25.07.1.01-.05-.02-.11-.02-.16-.04-.04-.01-.09-.04-.12-.04.03,0,.27.15.12.04-.03-.02-.07-.05-.11-.07-.08-.06-.07-.05.02.02.09.07.1.08.03.01-.2-.25.11.22-.02-.03-.07-.13.06.27.05.12,0-.04-.02-.12-.04-.16,0,0,.04.34.03.14s-.01.12-.03.14c.02-.03.02-.09.03-.13.07-.24.04,0-.03.06.01,0,.05-.09.06-.11.1-.2-.17.16-.06.07.03-.02.1-.09.11-.11,0,.03-.26.16-.1.08.03-.01.09-.04.11-.06-.14.14-.25.09-.13.06.2-.05-.15.02-.15.01h.06c.13,0,.08,0-.14-.02.64.12,1.38-.18,1.54-.87.14-.62-.19-1.41-.87-1.54h0Z"/><path class="cls-1" d="m36.59,51.53c2.18-12.46,4.63-24.86,7.37-37.21.35-1.57-2.06-2.24-2.41-.66-2.74,12.35-5.2,24.75-7.37,37.21-.27,1.57,2.13,2.25,2.41.66h0Z"/><path class="cls-1" d="m45.61,8.33c1.27-.44,2.16-1.59,2.2-2.95s-.94-2.52-2.18-2.95c-2.19-.76-4.15,1.38-4.02,3.49.07,1.15.64,2.1,1.6,2.74s2.09.73,3.17.55c2.22-.36,3.73-2.4,3.89-4.56S48.86.49,46.74.09c-1.05-.2-2.19-.09-3.09.52-.85.57-1.47,1.46-1.65,2.48s-.07,2.05.45,2.94c.58.98,1.56,1.56,2.69,1.66,1.97.17,4.14-1.53,4.01-3.6-.08-1.22-.8-2.39-1.92-2.91-1.23-.58-2.59-.39-3.59.55-.85.8-1.28,2.13-.86,3.24.44,1.17,1.52,1.92,2.75,2.02.56.05,1.14-.1,1.62-.38.56-.33.82-1.14.45-1.71s-1.11-.8-1.71-.45c-.02,0-.08.04-.09.05l-.03.02.17-.07s-.19.05-.23.07c-.11.04.15-.02.16-.02-.03,0-.07,0-.1,0-.07,0-.37-.02-.14,0s-.02-.01-.07-.03c-.03,0-.07-.02-.1-.03-.12-.03-.05-.09.1.05-.05-.04-.13-.07-.19-.1-.05-.03-.28-.18-.1-.06s-.04-.05-.08-.09c-.15-.14.12.21.02.04-.03-.05-.15-.3-.07-.09s-.01-.06-.03-.12c-.07-.2,0,.24,0,.03,0-.05.02-.36,0-.14s.02-.04.03-.09c0-.01.04-.1.03-.11.03.05-.12.25-.02.05.04-.07.07-.13.12-.2.15-.23-.13.13.02-.02.06-.05.11-.11.17-.16.03-.02.13-.11,0,0-.16.13.04-.01.06-.03.03-.02.07-.03.1-.05.1-.07-.12.05-.12.05.07-.01.15-.05.22-.07.21-.07-.27,0,.01,0,.09,0,.19.02.27,0,0,0-.26-.06-.14-.01.05.02.1.02.15.04.03,0,.08.04.11.04,0,0-.23-.11-.12-.05.07.04.14.07.21.11.04.03.09.06.13.09.13.08-.17-.16-.07-.05.05.06.12.11.17.17.19.2-.09-.16.02.03.04.07.08.14.12.2.02.04.07.16,0,0-.07-.2.01.05.02.07.02.06.02.17.06.23,0,0-.01-.27-.02-.14,0,.03,0,.07,0,.11,0,.07-.03.33,0,.1s-.01.03-.03.09-.11.31-.02.1,0,0-.03.05c-.03.06-.07.11-.1.17-.14.23.18-.18,0,0-.1.1-.22.19-.31.3,0,0,.23-.15.12-.1-.03.02-.06.04-.08.06-.08.05-.15.09-.23.14-.03.01-.06.03-.09.05-.1.07.14-.06.14-.06-.06.02-.13.05-.19.07-.07.02-.15.05-.23.06-.03,0-.07.01-.1.02-.17.04.1-.02.13-.01-.14,0-.29.01-.43.01-.27,0,.23.06.04,0-.07-.02-.15-.04-.22-.06-.03,0-.07-.03-.09-.03,0,0,.24.13.15.06-.06-.04-.14-.07-.21-.11-.03-.02-.06-.04-.08-.06-.11-.06.12.09.12.09-.04-.07-.14-.12-.19-.18-.02-.02-.04-.05-.07-.07-.09-.08.09.12.09.12-.03-.06-.08-.11-.11-.16-.04-.07-.07-.13-.11-.2-.12-.23.06.21,0,.02-.04-.14-.08-.28-.11-.42-.06-.27.01.24,0,.03,0-.08-.01-.16-.01-.24,0-.07,0-.14,0-.2,0-.04.01-.09.01-.14,0-.13-.03.17-.02.16.05-.15.06-.31.11-.46.02-.06.06-.13.07-.19,0,0-.13.24-.06.14.02-.03.03-.06.04-.09.04-.07.08-.14.12-.2.02-.03.04-.06.06-.08.09-.14-.04.07-.07.09.1-.07.22-.22.31-.31s-.12.09-.12.09c.03,0,.1-.07.12-.08.07-.04.15-.08.22-.12.03-.01.07-.03.1-.05,0,0-.25.09-.13.06.08-.02.16-.05.24-.08.07-.02.14-.03.21-.05.04,0,.18-.03-.03,0-.22.03,0,0,.05,0,.16,0,.31,0,.47,0,.03,0,.07.01.11.01,0,0-.28-.05-.15-.02.08.02.17.03.25.05s.16.05.24.07c.05.02.28.11.09.03s.06.03.11.06c.08.04.15.08.22.13.06.04.15.13.21.14,0,0-.2-.17-.11-.08.02.03.06.05.08.07.12.11.22.27.35.37,0,0-.14-.22-.09-.11.02.03.04.06.06.09.05.07.09.15.13.22.02.03.03.08.05.11,0,0-.09-.25-.05-.12.03.09.06.17.09.26s.05.17.06.26c0,.04,0,.08.02.11,0,0-.03-.28-.02-.14,0,.18.02.36.01.54,0,.11-.07.37.01.02-.02.08-.03.15-.04.23-.04.18-.09.35-.15.53-.07.22.11-.21,0,0-.04.08-.08.16-.12.25-.08.15-.2.28-.27.43.11-.21.12-.15.05-.07-.03.03-.05.06-.08.09-.05.06-.11.12-.16.17-.07.06-.13.12-.2.18-.15.14.2-.14-.03.02-.14.09-.28.17-.42.24-.2.1.23-.08.02-.01-.1.03-.19.06-.29.09-.07.02-.15.04-.22.05-.04,0-.12.01-.15.03,0,0,.28-.02.14-.02-.18,0-.35.02-.53.01-.05,0-.31-.03-.09,0s-.04,0-.09-.02c-.08-.02-.17-.04-.25-.06-.05-.02-.32-.12-.13-.04s-.06-.03-.11-.06c-.06-.03-.12-.08-.19-.11-.19-.11.18.17.02.02-.07-.07-.14-.13-.21-.2-.02-.03-.05-.06-.07-.08-.09-.09.09.11.09.11-.01-.06-.08-.14-.12-.19-.02-.02-.02-.06-.04-.09,0,0,.09.27.06.15-.02-.08-.05-.16-.07-.25-.01-.05-.05-.29-.02-.06s0,0,0-.06c0-.08,0-.15,0-.23,0-.03,0-.07,0-.1,0-.14-.06.27-.02.14s.06-.28.11-.41c.01-.03.02-.06.03-.09.04-.12-.07.16-.06.15.05-.06.08-.16.12-.23.03-.05.08-.1.1-.16,0,.02-.21.24-.08.11.02-.02.04-.05.06-.07.04-.04.1-.08.13-.13.07-.09-.14.1-.13.1.04-.02.08-.06.13-.09.05-.03.11-.05.16-.09.1-.06-.16.07-.16.07.03,0,.06-.02.09-.03.04,0,.08-.02.12-.03.1-.04-.17.02-.18.02.07,0,.17,0,.25,0,.16-.01-.26-.06-.1-.02.04,0,.08.02.12.03s.08.03.11.03c.12.02-.1-.05-.11-.05.07.05.17.09.24.13.23.15-.11-.12.03.02.05.05.11.14.16.17-.14-.08-.12-.18-.05-.06.02.03.04.07.06.1.01.03.03.09.06.1,0,0-.08-.24-.05-.12,0,.04.03.08.04.11,0,.03.06.29.02.07-.03-.2-.02.06-.01.11.01.12.01-.12.03-.14-.01.01-.03.15-.03.16-.02.07-.07.16-.07.23,0-.01.11-.22.05-.12-.03.04-.05.09-.08.14-.15.25.13-.12-.02.03-.04.04-.15.12-.17.17,0,0,.21-.14.1-.07-.05.03-.09.06-.13.08-.25.14.17-.05-.03.02-.62.21-1.09.87-.87,1.54.2.61.88,1.1,1.54.87h0Z"/><path class="cls-1" d="m122.62,136.16c-7.97,31.75-15.5,63.61-22.58,95.57-2,9.04-3.97,18.09-5.91,27.14-.34,1.57,2.07,2.24,2.41.66,6.84-32.01,14.11-63.93,21.83-95.75,2.18-9,4.4-17.99,6.66-26.97.39-1.56-2.02-2.23-2.41-.66h0Z"/><path class="cls-1" d="m142.02,273.33c-14.71-5.61-29.88-9.94-45.33-12.96-1.57-.31-2.24,2.1-.66,2.41,15.45,3.02,30.62,7.36,45.33,12.96,1.5.57,2.16-1.84.66-2.41h0Z"/><path class="cls-1" d="m176.87,157.97c.17-.7.48-1.5.47-2.23-.01-.86-.78-1.35-1.58-1.21s-.99,1.18-1.18,1.85c-.31,1.1-.61,2.21-.91,3.32-1.22,4.49-2.41,8.99-3.61,13.48-4.86,18.3-9.66,36.62-14.46,54.93-4.1,15.63-8.19,31.26-12.28,46.9-.41,1.56,2,2.22,2.41.66,6.53-24.94,13.06-49.89,19.62-74.82,3.4-12.94,6.79-25.88,10.27-38.79.4-1.47.79-2.95,1.21-4.42.11-.38.22-.76.33-1.14.24-.86-.02.31-.73.44l-1.58-1.21c0-.49-.04.13-.08.28-.1.43-.2.86-.3,1.29-.38,1.56,2.04,2.23,2.41.66h0Z"/><path class="cls-1" d="m173.98,149.3c-15.38-4.73-30.75-9.45-46.13-14.18-1.54-.47-2.2,1.94-.66,2.41,15.38,4.73,30.75,9.45,46.13,14.18,1.54.47,2.2-1.94.66-2.41h0Z"/><path class="cls-1" d="m122.08,255.01c4.28-13.68,8.5-27.44,10.03-41.75.17-1.6-2.33-1.59-2.5,0-1.5,14.07-5.73,27.64-9.94,41.08-.48,1.54,1.93,2.2,2.41.66h0Z"/><path class="cls-1" d="m130.8,220.28c2.59-7.68,5.17-15.36,7.77-23.04,2.39-7.06,4.92-14.11,8.84-20.5.84-1.38-1.32-2.63-2.16-1.26-3.95,6.43-6.53,13.55-8.94,20.67-2.65,7.82-5.28,15.64-7.91,23.46-.52,1.53,1.9,2.18,2.41.66h0Z"/><path class="cls-1" d="m161.56,164.11c1.59-1.76,3.28-3.68,3.68-6.11.32-1.96-.34-4.17-1.96-5.4-1.77-1.36-4.09-.97-5.74.39-2.12,1.74-2.62,4.49-3.56,6.92l2.28-.3c-1.56-3.66-6.21-5.5-9.84-3.84-1.93.88-3.19,2.84-2.56,4.97.73,2.45,3.12,3.53,5.43,4.02v-2.41c-4.32,1.13-9.53,3.79-8.52,9.14.39,2.1,2.02,3.71,4.17,3.92,2.67.26,5.08-1.59,6.86-3.37l-2.09-1.22c-1.01,3.88,0,10.93,5.57,9.68,1.97-.44,3.6-1.95,4.25-3.85.86-2.54.12-5.21-.9-7.57l-1.41,1.84c3.91,1.06,10.01,1.99,12.05-2.73,2.19-5.07-6.15-6.4-9.38-6.09-1.59.15-1.6,2.65,0,2.5s3.14-.04,4.68.44c1.44.45,3.42,1.29,1.87,2.94-2.18,2.32-5.93,1.25-8.56.54-1.15-.31-1.82.88-1.41,1.84,1.06,2.44,1.83,6.68-1.55,7.67s-3.31-4.54-2.79-6.53c.31-1.2-1.2-2.11-2.09-1.22-1.18,1.18-2.77,2.64-4.55,2.68-1.55.03-2.36-1.28-2.33-2.7.07-3.49,4.01-4.76,6.8-5.48,1.16-.3,1.23-2.15,0-2.41-1.39-.3-3.43-.79-3.74-2.45-.25-1.35,1.29-2.04,2.38-2.21,2.34-.36,4.59,1.06,5.5,3.18.47,1.1,1.95.57,2.28-.3.61-1.59.94-3.43,1.95-4.84.8-1.12,2.45-2.15,3.64-.97,2.39,2.39-.57,5.79-2.19,7.58-1.08,1.19.68,2.96,1.77,1.77h0Z"/><path class="cls-1" d="m133.88,210.23c4.69-10.37,16.15-15.96,27.21-13.07l-.75-1.84c-2.5,4.55-5.18,9.47-9.82,12.16s-10.08,2.75-14.9.92c-1.51-.57-2.16,1.85-.66,2.41,5.31,2.01,11.47,1.77,16.49-.98s8.28-8.21,11.06-13.25c.38-.7.05-1.63-.75-1.84-12.05-3.15-24.89,2.83-30.04,14.22-.66,1.45,1.5,2.73,2.16,1.26h0Z"/><path class="cls-1" d="m131.67,217.05c2.67-10.92,1.91-22.54-2.27-33-.59-1.48-3.01-.83-2.41.66,4.01,10.05,4.84,21.15,2.27,31.67-.38,1.56,2.03,2.23,2.41.66h0Z"/><path class="cls-1" d="m129.71,181.42c1.79.87,3.74,1.16,5.7.77,1.67-.33,3.64-1.4,3.05-3.43-.51-1.74-2.5-2.56-4.04-3.12-1.77-.65-3.75-.87-5.41.18-1.36.86-.14,2.98,1.26,2.16,1.67-.97,3.08-2.38,4-4.08.86-1.58,1.71-3.95.08-5.35-1.21-1.04-3.08-.77-4.32.08-1.62,1.12-1.85,3.12-3.05,4.56l2.09.55c-.43-1.42-.93-2.92-2.1-3.91s-2.82-1.39-4.16-.57c-1.16.71-1.81,2.22-1.29,3.52.23.57.65.99,1.12,1.37.21.17.42.35.63.5.34.23.09.21.17-.01l1.21-.92c-1.51.04-2.82.73-3.85,1.83s-1.96,2.47-2.41,3.83c-.61,1.83,1,2.75,2.6,2.59,1.73-.18,3.32-1,4.46-2.31l-2.09-1.22c-.23,1.6-1.49,2.91-1.45,4.57.04,1.34.84,2.87,2.21,3.25s2.54-.51,3.03-1.71c.2-.5.3-1.02.42-1.55.03-.13.19-.84.21-.85.63-.26,1.06-.83.87-1.54-.16-.59-.92-1.13-1.54-.87-.97.4-1.52,1.07-1.83,2.08-.13.41-.18,1.83-.58,2.05.03-.02.08.02-.03-.13-.19-.28-.3-.59-.28-.92.05-.61.48-1.26.73-1.81.28-.62.53-1.23.63-1.9.16-1.1-1.17-2.27-2.09-1.22-.6.69-1.32,1.21-2.21,1.46-.15.04-1.05.09-1.1.17.19.65.34.81.46.49.06-.11.11-.22.17-.33.1-.19.2-.37.3-.55.71-1.26,1.73-2.85,3.34-2.9.57-.02,1.03-.38,1.21-.92.26-.82-.02-1.63-.6-2.23-.26-.27-1.4-.91-1.42-1.22-.06-.87,1.18-.4,1.49-.14.79.64,1.06,1.77,1.34,2.7.25.83,1.46,1.31,2.09.55.89-1.07,1.31-2.32,2.02-3.49.27-.45,1.24-1.51,1.89-1.06.58.4-.54,2.24-.83,2.7-.71,1.14-1.68,2.04-2.83,2.71l1.26,2.16c.93-.58,1.94-.42,2.94-.11.86.27,2.05.63,2.66,1.34.09.1.14.2.21.32.09-.23.06-.28-.09-.13l-.14.07c-.55.11-1.05.33-1.62.38-1.12.1-2.25-.1-3.26-.59-1.44-.7-2.71,1.46-1.26,2.16h0Z"/><path class="cls-1" d="m159.1,195.39c-9.48,1.85-18.34,6.03-25.85,12.08-1.25,1.01.53,2.77,1.77,1.77,7.18-5.78,15.71-9.68,24.75-11.44,1.58-.31.91-2.72-.66-2.41h0Z"/><path class="cls-1" d="m137.14,207.25c3.83-.62,7.82.15,11.18,2.06,1.4.8,2.66-1.36,1.26-2.16-3.98-2.27-8.59-3.05-13.1-2.31-.67.11-1.04.94-.87,1.54.19.71.87.98,1.54.87h0Z"/><path class="cls-1" d="m145.24,202.05c3.64-.69,7.47-.09,10.74,1.64,1.42.75,2.69-1.4,1.26-2.16-3.89-2.06-8.34-2.72-12.67-1.89-.66.13-1.04.92-.87,1.54.19.69.87,1,1.54.87h0Z"/><path class="cls-1" d="m153.33,164.83s0,.02,0,.03c.02.05.11.26.13.3,0,0,0,0,0,.01,0,0,0,0,0,0,.01.02.19.24.2.26,0,0,0,0,0,0,0,0,0,0,0,0l.25.2c.31.18.67.23,1.01.14.37-.1.67-.36.86-.68.13-.22.24-.54.22-.8-.02-.28-.04-.41-.18-.66,0,0,0,0,0-.01h0s-.07-.09-.1-.13c-.04-.06-.07-.09-.11-.14-.16-.17-.36-.26-.58-.34,0,0-.01,0-.02,0,0,0-.01,0-.02,0l-.33-.04s0,0-.01,0c-.13,0-.28.02-.38.05,0,0-.02,0-.03,0,0,0,0,0-.01,0l-.3.13s0,0-.01,0c0,0-.01,0-.02.01-.04.03-.14.11-.14.1s-.1.07-.13.1c-.09.08-.16.19-.23.29,0,0,0,.01-.01.02,0,0,0,0,0,.01-.03.07-.1.23-.13.3,0,.02-.01.04-.02.06-.02.11-.04.24-.05.35,0,0,0,.02,0,.03,0,.12.04.32.05.39.02.14.1.29.16.41,0,.02.02.04.03.05.07.1.14.21.23.3.19.2.39.29.64.38.01,0,.02,0,.03,0,0,0,0,0,.01,0,.08.02.26.04.34.05.03,0,.06,0,.09,0,.1-.01.3-.02.42-.07.11-.04.26-.09.38-.17s.23-.16.32-.25.19-.23.26-.33c.1-.14.16-.32.22-.48.01-.03.02-.07.03-.11.03-.14.05-.29.06-.43,0-.17-.03-.33-.11-.48-.05-.15-.14-.29-.26-.4-.11-.12-.25-.21-.4-.26-.15-.08-.31-.11-.48-.11l-.33.04c-.21.06-.4.17-.55.32l-.2.25c-.11.19-.17.41-.17.63,0,.02,0,.03,0,.05l.04-.33c0,.06-.03.13-.05.19l.13-.3c-.02.06-.05.11-.09.16l.2-.25s-.06.07-.1.1l.25-.2s-.06.04-.1.06l.3-.13s-.06.02-.1.03l.33-.04s-.06,0-.09,0l.33.04s-.04,0-.06-.02l.3.13s-.03-.02-.05-.03l.25.2s-.04-.03-.05-.05l.2.25s-.03-.05-.05-.08l.13.3s-.02-.07-.03-.1l.04.33s0-.07,0-.1l-.04.33s0-.05.02-.07l-.13.3s.02-.03.03-.05l-.2.25s.02-.02.03-.03l-.25.2s.02-.02.04-.02l-.3.13s.03-.01.05-.01l-.33.04s.04,0,.06,0l-.33-.04s.02,0,.03,0l-.3-.13s.01,0,.02.01l-.25-.2s0,0,.01.01l-.2-.25s0,.01.01.02l-.13-.3s0,.02,0,.03l-.04-.33s0,.03,0,.04l.04-.33s-.01.05-.02.08l.13-.3s-.03.06-.05.09l.2-.25s-.03.03-.05.05l.25-.2s-.02.01-.03.02l.3-.13s-.01,0-.02,0l.33-.04s-.01,0-.02,0l.33.04s0,0-.01,0l.3.13s0,0-.01,0l.25.2s0,0-.01-.01l.2.25s0-.02-.01-.02l.13.3s0-.02,0-.03c-.04-.16-.11-.3-.22-.43-.09-.14-.21-.24-.35-.32-.14-.09-.3-.14-.46-.15-.17-.04-.33-.03-.5.02l-.3.13c-.19.11-.34.26-.45.45l-.13.3c-.06.22-.06.44,0,.66h0Z"/><path class="cls-1" d="m126.86,177.9c1.61,0,1.61-2.5,0-2.5s-1.61,2.5,0,2.5h0Z"/></g></svg>