<?xml version="1.0" encoding="UTF-8"?><svg id="Layer_2" xmlns="http://www.w3.org/2000/svg" width="136.96" height="168" viewBox="0 0 136.96 168"><defs><style>.cls-1{fill:#fff;stroke-width:0px;}</style></defs><g id="Layer_1-2"><path class="cls-1" d="m44.44,96.62c-1.44-2.05-.91-4.54.37-6.54,1.44-2.25,3.89-3.65,6.41-4.36,3.87-1.09,7.5-.6,11.12.9,8.97,3.72,14.73,12.57,17.94,21.37,1.13,3.11,2.01,6.32,2.63,9.57.31,1.58,2.72.91,2.41-.66-1.56-8.04-4.56-16.07-9.58-22.6-5.98-7.79-16.44-14.38-26.5-10.55-2.93,1.11-5.57,3.02-7.04,5.84-1.36,2.61-1.68,5.79.08,8.3.92,1.31,3.09.06,2.16-1.26h0Z"/><path class="cls-1" d="m84.54,119.25c9.45-3.48,18.9-6.96,28.35-10.44,2.4-.88,4.8-1.77,7.2-2.65,2.27-.84,4.59-1.94,6.94-2.53,3.07-.77,8.14,1.63,7.46,5.4-.32,1.79-1.88,3.23-3.2,4.37-1.61,1.38-3.42,2.39-5.46,2.99-1.54.45-.89,2.86.66,2.41,3.68-1.07,7.37-3.53,9.44-6.83,2.35-3.74.41-7.96-3.26-9.92-4.68-2.49-9.48.32-13.94,1.96-5.42,2-10.85,3.99-16.27,5.99-6.2,2.28-12.4,4.56-18.59,6.85-1.5.55-.85,2.97.66,2.41h0Z"/><path class="cls-1" d="m127.78,118.38c.07,0,.14.01.21.02.05,0,.37.04.22.02-.13-.02.2.03.25.04.16.03.33.06.49.1.71.16,1.41.38,2.06.72,1.37.71,2.55,1.89,3,3.39,1.1,3.67-2.94,6.48-5.77,7.8-1.15.54-2.37.94-3.59,1.26-1.56.4-.9,2.81.66,2.41,3.34-.86,6.87-2.41,9.16-5.07,1.55-1.79,2.52-3.97,2.11-6.37-.36-2.1-1.78-3.93-3.51-5.1-1.56-1.05-3.44-1.57-5.3-1.71-1.61-.12-1.6,2.38,0,2.5h0Z"/><path class="cls-1" d="m124.66,134.13c2.66.36,6.49,2.7,5.46,5.89-.26.81-.74,1.52-1.3,2.15-.06.07-.13.12-.2.18-.24.22.17-.11-.12.09-.49.35-1.01.65-1.54.94-3.81,2.08-7.94,3.62-11.99,5.17-10.94,4.21-22.06,7.99-33.18,11.69-3.28,1.09-6.55,2.17-9.84,3.23-1.53.49-.87,2.91.66,2.41,8.61-2.77,17.18-5.65,25.72-8.62,6.02-2.1,12.03-4.24,17.98-6.55,4.18-1.62,8.54-3.2,12.44-5.46,2.17-1.26,3.88-3.35,4.06-5.96.27-3.98-3.93-7.08-7.48-7.57-1.57-.21-2.25,2.19-.66,2.41h0Z"/><path class="cls-1" d="m42.17,96.82c.43,2.01,2.6,2.52,4.34,1.99,1.51-.45,2.73-.86,4.34-.87,3.62-.03,7.5.95,10.04,3.67,4.39,4.69,4.32,13.1,1.44,18.54-1.91,3.61-6.07,4.58-9.86,4.12s-7.37-2.34-9.7-5.44c-1.07-1.43-2.04-3.06-2.61-4.75-.78-2.33-.44-4.51.61-6.69,1.69-3.54,4.14-6.89,3.4-11.04-.28-1.55-1.13-3.15-2.52-3.97-1.08-.63-2.35-.57-3.53-.36-1.78.31-3.5,1-5.19,1.62-1.93.71-3.91,1.36-5.76,2.28-3.5,1.75-5.06,5.01-5.95,8.66s-1,7.25-.74,10.98c.88,12.86.93,27.16,9.26,37.78,4.06,5.17,9.37,9.29,15.45,11.83,7.7,3.21,16.34,3.64,24.41,1.62,1.02-.26,2.04-.56,3.04-.89,1.52-.51.87-2.93-.66-2.41-6.53,2.2-13.66,2.71-20.39,1.14-7.39-1.73-13.98-5.88-18.91-11.63-3.17-3.69-5.46-8.07-6.73-12.89-1.86-7.02-2.24-14.41-2.74-21.63-.26-3.67-.65-7.32-.02-10.98s1.7-7.66,5.42-9.47c1.86-.91,3.88-1.55,5.83-2.26,1.51-.54,3.13-1.23,4.74-1.37,3.52-.31,2.73,5.03,1.91,7.02-1.68,4.08-4.6,7.38-3.64,12.1.68,3.32,2.87,6.75,5.35,9.04,5.03,4.64,14.78,6.49,20.04,1.19,2.33-2.35,3.35-5.95,3.77-9.15s.21-6.72-.95-9.82-3.34-5.94-6.41-7.48-6.8-2.13-10.22-1.71c-.63.08-1.27.18-1.88.37-.5.16-2.34,1.15-2.54.22-.34-1.57-2.75-.91-2.41.66h0Z"/><path class="cls-1" d="m127.45,115.93c-12.7,5.01-25.4,10.03-38.1,15.04-1.48.58-.83,3,.66,2.41,12.7-5.01,25.4-10.03,38.1-15.04,1.48-.58.83-3-.66-2.41h0Z"/><path class="cls-1" d="m124.66,131.72c-11.95,4.52-23.89,9.05-35.84,13.57-1.49.56-.84,2.98.66,2.41,11.95-4.52,23.89-9.05,35.84-13.57,1.49-.56.84-2.98-.66-2.41h0Z"/><path class="cls-1" d="m54.25,111.02c-5.4-8.06-10.23-16.49-14.43-25.23-2.12-4.41-4.08-8.9-5.86-13.45s-3.48-9.13-4.59-13.88c-1.26-5.36-1.66-10.92-.14-16.27.44-1.55-1.97-2.21-2.41-.66-2.76,9.74.31,19.79,3.76,28.94,3.54,9.39,7.75,18.52,12.63,27.29,2.76,4.97,5.73,9.81,8.9,14.53.89,1.33,3.06.08,2.16-1.26h0Z"/><path class="cls-1" d="m41.65,16.81c1.61-3.02,2.41-6.46,2.09-9.89-.26-2.81-1.16-6.24-4.38-6.83s-5.73,1.66-6.99,4.33c-1.53,3.24-2.13,6.96-2.16,10.51l2.33-.63c-1.68-3.01-5.09-4.05-8.33-4.3s-7.37.07-9.74,2.7c-2.23,2.47-2.41,6.48-.51,9.19,2.03,2.9,5.72,4.01,9.1,3.27l-.66-2.41c-3.49.99-6.57,3.07-8.78,5.95-1.88,2.46-3.8,6.23-2.41,9.34,1.63,3.67,6.46,2.66,9.44,1.55,3.57-1.34,6.56-3.66,8.81-6.73l-2.28-.3c.8,3.23,2.38,6.24,4.65,8.68,2.09,2.25,5.33,4.26,8.51,3.27,2.77-.86,4.27-3.62,4.46-6.39.23-3.48-1.84-6.59-3.76-9.29l-.75,1.84c3.82-1.06,7.92-1.62,11.37-3.72,2.88-1.75,4.91-4.73,5.18-8.13s-1.76-6.39-5.06-7.14c-3.6-.82-7.34.92-10.41,2.62-1.41.78-.15,2.94,1.26,2.16,2.41-1.34,5.46-2.93,8.32-2.4s3.86,3.14,3.22,5.69c-1.58,6.39-9.27,7.04-14.55,8.51-.72.2-1.22,1.17-.75,1.84,1.48,2.08,3.19,4.39,3.42,7.01.18,2.04-.74,4.65-2.98,5.09-2.47.49-4.79-1.59-6.24-3.33-1.7-2.02-2.84-4.42-3.47-6.97-.28-1.14-1.69-1.11-2.28-.3-1.68,2.29-3.97,4.11-6.56,5.27-1.81.81-6.84,2.69-7.43-.4-.47-2.48,1.4-5.34,2.98-7.08,1.83-2.03,4.15-3.48,6.78-4.22,1.56-.44.9-2.75-.66-2.41-2.42.53-5.26-.33-6.55-2.56-1.23-2.1-.81-5.04,1.23-6.47s4.83-1.4,7.15-1.23,4.94.86,6.17,3.06c.61,1.1,2.32.59,2.33-.63.02-2.7.44-5.36,1.3-7.93.69-2.03,2.11-4.76,4.67-4.49,2.4.25,2.6,3.83,2.62,5.66.03,2.58-.6,5.1-1.81,7.38-.76,1.42,1.4,2.68,2.16,1.26h0Z"/><path class="cls-1" d="m37.58,22.45c.58-2.47-1.71-4.36-4-4.5s-4.39,1.61-5.22,3.66c-.9,2.21-.03,4.61,1.81,6.01,1.69,1.29,4.14,1.49,5.88.18,1.95-1.48,2.74-4.18,1.6-6.4-.31-.6-1.15-.78-1.71-.45-.61.36-.76,1.11-.45,1.71.03.05.14.35.04.07.02.06.04.13.06.19.03.09.11.57.08.25.02.17.03.33.02.5,0,.07,0,.13-.01.2-.01.14-.01.13,0-.03-.01.07-.02.13-.04.2-.03.15-.07.29-.12.44-.03.08-.06.16-.09.24.09-.24.03-.07,0-.02-.08.15-.16.3-.25.44-.05.09-.11.17-.17.25.13-.17,0-.02-.06.06-.11.12-.24.23-.36.35.16-.16.07-.05.01-.01-.08.05-.17.11-.25.16-.06.03-.12.06-.18.1-.27.16.23-.06-.07.03-.17.05-.33.1-.5.14-.33.08.23.01-.1,0-.07,0-.14,0-.22,0-.11,0-.22,0-.32-.02.05,0,.25.05.01,0-.18-.04-.35-.08-.52-.13-.07-.02-.14-.05-.2-.07.26.1-.15-.08-.2-.1-.14-.08-.28-.16-.42-.26-.05-.04-.23-.19-.05-.04-.06-.05-.11-.09-.17-.14-.14-.12-.26-.26-.38-.39-.23-.25.11.2-.07-.09-.06-.09-.12-.18-.17-.28-.05-.08-.09-.16-.13-.24-.09-.18.09.27-.02-.05-.06-.17-.1-.35-.15-.52-.01-.06-.02-.23,0,0,0-.11-.02-.22-.02-.34,0-.07,0-.15,0-.22,0-.09.05-.34,0-.11.03-.18.08-.37.13-.54.03-.11.07-.21.11-.32-.02.05-.1.19.01,0,.09-.16.18-.33.28-.49.04-.06.08-.13.13-.19-.15.2.13-.15.17-.18.12-.12.24-.24.37-.35.04-.04.24-.18.06-.05.06-.04.12-.09.19-.13.16-.1.32-.19.49-.28.31-.16-.21.05.12-.05.11-.03.21-.07.32-.1.07-.02.15-.03.22-.05.15-.03.15-.03,0,0,.07,0,.14-.01.21-.01.07,0,.14,0,.21,0,.28,0-.16-.05.09,0,.21.05.42.1.62.18-.23-.08-.01,0,.05.03.11.06.22.12.32.19.06.04.12.08.17.12-.22-.17.06.07.1.11.06.06.12.12.17.19-.18-.22,0,.03.03.07,0,.02.13.29.06.11-.06-.17.04.19.05.22-.07-.24,0-.13-.02-.04,0,.07,0,.13,0,.2.02-.17.02-.18,0-.03-.15.64.2,1.38.87,1.54.64.15,1.38-.19,1.54-.87h0Z"/><path class="cls-1" d="m31.47,66.63c-2.4-6.24-8.37-10.76-15.1-11.12S2.91,59.36.12,65.51c-.35.77.04,1.98,1.08,1.88,10.86-1.07,21.84,1.32,31.25,6.86,1.39.82,2.65-1.34,1.26-2.16-9.76-5.74-21.24-8.3-32.51-7.2l1.08,1.88c2.4-5.29,7.87-8.93,13.73-8.77s11.02,4.03,13.05,9.3c.57,1.49,2.99.84,2.41-.66h0Z"/><path class="cls-1" d="m38.75,83.49c-1.05-4.8-.48-9.9,1.52-14.39.98-2.21,2.28-4.28,3.89-6.08s3.96-4.25,6.64-4.2l-1.25-1.25c1.08,9.61-.15,21.55-9.98,26.27-1.45.7-.18,2.85,1.26,2.16,10.61-5.09,12.39-17.97,11.21-28.43-.08-.68-.51-1.24-1.25-1.25-3.06-.06-5.61,2.05-7.65,4.13s-3.68,4.46-4.89,7.06c-2.42,5.2-3.15,11.04-1.92,16.65.34,1.57,2.75.91,2.41-.66h0Z"/><path class="cls-1" d="m50.07,64.34c-2.05.6-4.03,1.48-5.84,2.63-.55.35-.82,1.13-.45,1.71s1.12.82,1.71.45c.84-.54,1.72-1.02,2.63-1.43.12-.06.24-.11.37-.16.31-.14-.24.1.07-.03.25-.1.5-.2.75-.29.47-.17.94-.33,1.42-.47.63-.18,1.08-.89.87-1.54s-.87-1.07-1.54-.87h0Z"/><path class="cls-1" d="m48.67,73c-2.2.26-4.33.79-6.38,1.65-.31.13-.57.27-.75.57-.16.27-.22.66-.13.96.19.58.89,1.14,1.54.87.95-.4,1.92-.74,2.91-1,.49-.13.98-.24,1.47-.34.26-.05.51-.1.77-.14.11-.02.22-.03.33-.05q.15-.02,0,0c.07,0,.15-.02.22-.03.65-.08,1.28-.52,1.25-1.25-.03-.61-.55-1.33-1.25-1.25h0Z"/><path class="cls-1" d="m18.76,67.27c.97-.73,2.01-1.35,3.12-1.84.05-.02.11-.05.16-.07-.12.05-.11.05.02,0,.14-.06.29-.11.43-.17.29-.11.58-.2.87-.29.59-.18,1.19-.32,1.79-.43.65-.11,1.07-.94.87-1.54-.22-.69-.85-1-1.54-.87-2.52.45-4.95,1.51-6.99,3.05-.52.39-.84,1.1-.45,1.71.33.51,1.15.87,1.71.45h0Z"/><path class="cls-1" d="m13.92,60.28c-3.21,1-6.15,2.63-8.73,4.78-.52.43-.45,1.32,0,1.77.51.51,1.25.43,1.77,0,1.06-.89,2.31-1.73,3.61-2.44s2.54-1.23,4.01-1.69c.64-.2,1.06-.87.87-1.54s-.89-1.07-1.54-.87h0Z"/></g></svg>