<?xml version="1.0" encoding="UTF-8"?><svg id="Layer_2" xmlns="http://www.w3.org/2000/svg" width="51.5" height="51.5" viewBox="0 0 51.5 51.5"><defs><style>.cls-1{fill:#fff;stroke-width:0px;}</style></defs><g id="Layer_1-2"><path class="cls-1" d="m25.75,4.64c6.87,0,7.69.03,10.4.15,2.81.13,5.7.77,7.74,2.81,2.06,2.06,2.68,4.93,2.81,7.74.12,2.71.15,3.53.15,10.4s-.03,7.69-.15,10.4c-.13,2.79-.78,5.71-2.81,7.74s-4.92,2.68-7.74,2.81c-2.71.12-3.53.15-10.4.15s-7.69-.03-10.4-.15c-2.77-.13-5.73-.8-7.74-2.81-2.05-2.05-2.68-4.94-2.81-7.74-.12-2.71-.15-3.53-.15-10.4s.03-7.69.15-10.4c.13-2.78.79-5.72,2.81-7.74,2.06-2.06,4.93-2.68,7.74-2.81,2.71-.12,3.53-.15,10.4-.15m0-4.64c-6.99,0-7.87.03-10.62.15-3.98.18-7.93,1.29-10.81,4.17C1.43,7.21.34,11.15.15,15.13c-.12,2.75-.15,3.62-.15,10.62s.03,7.87.15,10.62c.18,3.98,1.29,7.94,4.17,10.81,2.89,2.89,6.84,3.98,10.81,4.17,2.75.12,3.62.15,10.62.15s7.87-.03,10.62-.15c3.98-.18,7.93-1.29,10.81-4.17s3.98-6.83,4.17-10.81c.12-2.75.15-3.62.15-10.62s-.03-7.87-.15-10.62c-.18-3.98-1.29-7.93-4.17-10.81-2.88-2.88-6.84-3.99-10.81-4.17-2.75-.12-3.62-.15-10.62-.15Z"/><path class="cls-1" d="m25.75,12.53c-7.3,0-13.22,5.92-13.22,13.22s5.92,13.22,13.22,13.22,13.22-5.92,13.22-13.22-5.92-13.22-13.22-13.22Zm0,21.8c-4.74,0-8.58-3.84-8.58-8.58s3.84-8.58,8.58-8.58,8.58,3.84,8.58,8.58-3.84,8.58-8.58,8.58Z"/><circle class="cls-1" cx="39.49" cy="12" r="3.09"/></g></svg>