<?xml version="1.0" encoding="UTF-8"?><svg id="Layer_2" xmlns="http://www.w3.org/2000/svg" width="92.81" height="110.77" viewBox="0 0 92.81 110.77"><defs><style>.cls-1{fill:#f05223;stroke-width:0px;}</style></defs><g id="Layer_1-2"><path class="cls-1" d="m46.41,110.77c-1.93,0-3.87-.53-5.59-1.6L5.06,87.11c-3.17-1.95-5.06-5.34-5.06-9.06v-45.32c0-3.72,1.89-7.11,5.06-9.06L40.81,1.6c3.45-2.13,7.74-2.13,11.19,0l35.76,22.07c3.17,1.95,5.06,5.34,5.06,9.06v45.32c0,3.72-1.89,7.11-5.06,9.06l-35.76,22.07c-1.73,1.06-3.66,1.6-5.59,1.6Zm0-109.47c-1.7,0-3.4.47-4.91,1.4L5.74,24.77c-2.78,1.72-4.44,4.69-4.44,7.96v45.32c0,3.27,1.66,6.24,4.44,7.96l35.76,22.07c3.03,1.87,6.79,1.87,9.82,0l35.76-22.07c2.78-1.72,4.44-4.69,4.44-7.96v-45.32c0-3.27-1.66-6.24-4.44-7.96L51.32,2.7c-1.51-.93-3.21-1.4-4.91-1.4Z"/><path class="cls-1" d="m46.41,110.02c-2.25,0-4.5-.61-6.51-1.83L6.49,87.89c-4-2.43-6.49-6.95-6.49-11.81h1.3c0,4.4,2.25,8.5,5.86,10.69l33.41,20.3c3.6,2.19,8.07,2.19,11.67,0l33.41-20.3c3.62-2.2,5.86-6.29,5.86-10.69h1.3c0,4.85-2.49,9.37-6.49,11.81l-33.41,20.3c-2.01,1.22-4.26,1.83-6.51,1.83Z"/><path class="cls-1" d="m24.66,77.56l-2.97,8.6h-.63l-2.91-8.6h.53l1.93,5.85c.09.28.22.69.39,1.23.16.49.27.86.35,1.11h.08c.47-1.49.72-2.27.74-2.33l1.97-5.86h.51Z"/><path class="cls-1" d="m22.05,86.66h-1.35l-3.25-9.6h1.58l2.36,7.17c.19-.61.3-.94.31-.98l2.08-6.19h1.57l-3.31,9.6Z"/><path class="cls-1" d="m26.67,77.56v8.6h-.48v-8.6h.48Z"/><rect class="cls-1" x="25.69" y="77.06" width="1.48" height="9.6"/><path class="cls-1" d="m29.58,77.56v8.18h4.51v.42h-4.99v-8.6h.48Z"/><polygon class="cls-1" points="34.59 86.66 28.6 86.66 28.6 77.06 30.08 77.06 30.08 85.24 34.59 85.24 34.59 86.66"/><path class="cls-1" d="m35.69,77.56h2.41c1.37,0,2.4.4,3.11,1.2.64.73.96,1.75.96,3.07,0,1.5-.44,2.64-1.32,3.4-.73.63-1.69.94-2.89.94h-2.27v-8.6Zm.48.42v7.76h1.76c1.24,0,2.18-.36,2.83-1.07.61-.67.91-1.61.91-2.84,0-2.57-1.2-3.85-3.59-3.85h-1.91Z"/><path class="cls-1" d="m37.95,86.66h-2.77v-9.6h2.91c1.51,0,2.68.46,3.48,1.37.72.82,1.09,1.96,1.09,3.4,0,1.65-.5,2.92-1.5,3.78-.82.71-1.9,1.06-3.21,1.06Zm-1.29-1.42h1.26c1.1,0,1.91-.3,2.45-.9.52-.57.78-1.41.78-2.5,0-2.29-.98-3.35-3.09-3.35h-1.41v6.76Z"/><path class="cls-1" d="m55.43,77.56v8.6h-.48v-5.85l.02-2.35h-.08c-.3.83-.59,1.6-.87,2.31l-2.31,5.88h-.62l-2.31-5.88c-.31-.79-.6-1.56-.87-2.31h-.08l.02,2.35v5.85h-.47v-8.6h.82l2.28,5.8c.28.7.58,1.5.89,2.39h.08c.31-.92.59-1.7.85-2.36l2.29-5.83h.83Z"/><path class="cls-1" d="m55.93,86.66h-1.48v-6.09l-2.4,6.09h-1.3l-2.4-6.09v6.09h-1.47v-9.6h1.66l2.41,6.12c.15.37.3.77.46,1.19.15-.42.3-.81.43-1.16l2.42-6.15h1.67v9.6Z"/><path class="cls-1" d="m60.54,77.56l2.93,8.6h-.53l-1-2.98h-3.47l-1,2.98h-.51l2.95-8.6h.63Zm1.27,5.21l-.82-2.46c-.22-.65-.47-1.44-.74-2.35h-.08c-.2.7-.44,1.48-.74,2.33l-.83,2.47h3.2Z"/><path class="cls-1" d="m64.18,86.66h-1.58l-1-2.98h-2.75l-1,2.98h-1.57l3.29-9.6h1.35l3.28,9.6Zm-4.87-4.39h1.81l-.6-1.8c-.1-.28-.2-.59-.3-.92-.1.3-.2.6-.31.92l-.61,1.8Z"/><path class="cls-1" d="m65.01,77.56h2.41c1.37,0,2.4.4,3.11,1.2.64.73.96,1.75.96,3.07,0,1.5-.44,2.64-1.32,3.4-.73.63-1.69.94-2.89.94h-2.27v-8.6Zm.48.42v7.76h1.76c1.24,0,2.18-.36,2.83-1.07.61-.67.91-1.61.91-2.84,0-2.57-1.2-3.85-3.59-3.85h-1.91Z"/><path class="cls-1" d="m67.27,86.66h-2.77v-9.6h2.91c1.51,0,2.68.46,3.48,1.37.72.82,1.09,1.96,1.09,3.4,0,1.65-.5,2.92-1.5,3.78-.82.71-1.9,1.06-3.21,1.06Zm-1.29-1.42h1.26c1.1,0,1.91-.3,2.45-.9.52-.57.78-1.41.78-2.5,0-2.29-.98-3.35-3.09-3.35h-1.41v6.76Z"/><path class="cls-1" d="m.91,77.61l-.88-.49c5.1-9.18,11.8-17.11,19.92-23.57,5.88-4.68,12.42-8.5,19.44-11.35l.38.93c-6.92,2.81-13.38,6.58-19.19,11.21-8.02,6.38-14.64,14.22-19.67,23.28Z"/><path class="cls-1" d="m39.23,42.91l-.25-.44c-1.32-2.26-2.81-5.9-2.38-10.4.81-8.38,7.66-12.82,9.02-13.63l.63-.37.12.72c.33,2.09.52,4.22.56,6.34.09,4.8.16,8.95-2.29,12.78-1.2,1.88-2.87,3.47-4.98,4.73l-.43.26Zm6.26-23.2c-2.07,1.38-7.22,5.47-7.9,12.46-.38,3.95.81,7.2,1.99,9.35,1.77-1.13,3.18-2.52,4.21-4.14,2.28-3.58,2.21-7.59,2.13-12.22-.03-1.83-.18-3.66-.44-5.46Z"/><path class="cls-1" d="m52.54,47.97c-1.17,0-2.38-.11-3.66-.36-3.32-.66-6.42-2.14-9.21-4.4l-.5-.41.52-.38c1.92-1.4,4-2.59,6.17-3.54,5.13-2.23,9.44-2.52,11.51-2.66,5.84-.4,11.69.55,17.39,2.81l.87.34-.77.53c-4.1,2.84-8.54,4.97-13.19,6.34-3,.88-5.88,1.73-9.13,1.73Zm-11.73-5.13c2.53,1.93,5.3,3.2,8.26,3.79,4.63.92,8.36-.18,12.31-1.34,4.25-1.25,8.32-3.16,12.11-5.67-5.28-1.96-10.69-2.77-16.06-2.4-2.02.14-6.21.42-11.18,2.58-1.9.83-3.73,1.85-5.44,3.04Z"/><path class="cls-1" d="m49.99,35.13c-.17,0-.33,0-.47-.01l-.46-.03v-.46c-.05-1.42.18-3.55,1.53-5.66,2.02-3.16,5.18-4.12,6.45-4.39l.48-.1.11.48c.75,3.26-.3,6.59-2.67,8.5-1.75,1.4-3.71,1.67-4.96,1.67Zm6.76-9.45c-1.33.36-3.72,1.34-5.32,3.83-1.11,1.73-1.36,3.5-1.39,4.62,1.1,0,2.79-.25,4.28-1.45,1.96-1.57,2.88-4.27,2.42-7Z"/><path class="cls-1" d="m13.42,58.4l-.33-.52c-2.58-4.02-4.25-8.42-4.98-13.08-1.19-7.65.5-14.05,2.13-18.08l.26-.64.53.44c2.18,1.83,7.34,6.92,8.27,14.8.2,1.65.79,6.66-1.99,11.97-.9,1.71-2.06,3.28-3.45,4.67l-.44.44Zm-2.51-30.65c-1.5,3.93-2.91,9.88-1.81,16.9.67,4.32,2.19,8.4,4.5,12.16,1.13-1.2,2.08-2.53,2.83-3.97,2.64-5.04,2.07-9.82,1.88-11.39-.83-6.94-5.1-11.64-7.4-13.69Z"/><path class="cls-1" d="m22.89,50.15l-.29-.51c-.72-1.28-1.51-3.28-1.14-5.54.69-4.26,5.05-7.59,10.6-8.1l.76-.07-.24.73c-1.14,3.41-2.87,6.5-5.15,9.2-1.22,1.44-2.59,2.77-4.09,3.94l-.46.36Zm8.48-13.06c-4.65.69-8.34,3.62-8.92,7.17-.27,1.69.2,3.24.75,4.37,1.26-1.03,2.43-2.18,3.47-3.42,2.02-2.4,3.6-5.12,4.7-8.12Z"/><path class="cls-1" d="m39.14,64.1c-2.17,0-4.49-.21-6.93-.72-4.62-.97-8.92-2.88-12.8-5.67l-.5-.36.46-.42c1.46-1.32,3.09-2.39,4.84-3.19,5.46-2.5,10.43-1.63,12.06-1.35,7.82,1.35,12.63,6.78,14.34,9.05l.41.55-.65.22c-2.79.96-6.67,1.89-11.24,1.89Zm-18.62-6.84c3.63,2.51,7.63,4.23,11.9,5.13,6.95,1.47,12.96.37,16.97-.91-1.93-2.4-6.39-6.92-13.28-8.11-1.56-.27-6.3-1.09-11.47,1.27-1.48.68-2.86,1.55-4.12,2.61Z"/></g></svg>