<?xml version="1.0" encoding="UTF-8"?><svg id="Layer_2" xmlns="http://www.w3.org/2000/svg" width="170.45" height="189.03" viewBox="0 0 170.45 189.03"><defs><style>.cls-1{fill:none;stroke:#fff;stroke-miterlimit:10;stroke-width:2px;}.cls-2{fill:#fff;stroke-width:0px;}</style></defs><g id="Layer_1-2"><path class="cls-2" d="m2.29,178.24c4.16-8.89,8.92-17.5,14.31-25.7,4.56-6.93,9.49-13.71,15.13-19.8,3.15-3.4,6.6-6.81,10.76-8.97.26-.14.53-.27.8-.4.25-.12.65-.29.51-.23,1.05-.43,2.12-.8,3.22-1.08,3.02-.77,6.15-.86,9.26-.76,15.03.5,29.69,3.58,44.23,7.2,8.68,2.16,17.4,4.24,25.98,6.78.97.29,1.95.59,2.91.92.29.1.57.2.86.31.5.18.04-.03.43.18.11.06.24.15.35.19.09.03-.13-.07-.22-.26-.27-.54,0-1.32.34-1.47-.84.37-1.03,1.51-.39,2.15.27.27.63.38.98.49,1.94.62,4.01,1.01,5.62,2.37,1.32,1.12,2.48,3.62.93,5.05-1.26,1.16-3.59,1.06-5.16,1.07-3.54.02-7.06-.46-10.5-1.31-2.47-.61-4.88-1.41-7.25-2.33-1.5-.59-2.15,1.83-.66,2.41,4.47,1.75,9.11,2.99,13.88,3.5,1.58.17,3.17.25,4.76.23,1.95-.02,4.17-.11,5.88-1.17,3.83-2.36,2.23-7.57-.83-9.78-1.73-1.26-3.92-1.91-5.97-2.43-.28-.07-.19-.12-.18-.05,0,.05.61.46.61,1.02,0,.39-.32.93-.54,1,.04-.01.08-.04.11-.07.41-.32.72-.65.73-1.21.02-.98-.93-1.43-1.7-1.76-1.76-.74-3.62-1.26-5.46-1.78-4.35-1.25-8.73-2.37-13.11-3.48-8.76-2.23-17.52-4.53-26.37-6.41-7.26-1.55-14.56-2.49-21.94-3.22-6.99-.7-14.47-1.49-21.17,1.19-3.4,1.36-6.34,3.53-9.05,5.98-6.16,5.55-11.28,12.28-16.05,19.02-5.35,7.54-10.15,15.47-14.4,23.68-1.31,2.54-2.57,5.1-3.78,7.69-.68,1.45,1.48,2.72,2.16,1.26h0Z"/><path class="cls-2" d="m116.64,143.09c-11.57-4.71-24.81-4.86-36.49-.42-1.49.57-.84,2.98.66,2.41,11.32-4.3,23.94-4.15,35.16.42,1.49.61,2.14-1.81.66-2.41h0Z"/><path class="cls-2" d="m134.96,138.32c7.53-2.45,14.44-6.5,20.34-11.76,6.1-5.44,11.63-12.34,14.26-20.16.62-1.83,1.31-3.96.57-5.86-.56-1.45-1.88-2.5-3.38-2.88-3.73-.96-6.53,2.09-8.76,4.59-5.49,6.14-11.58,11.8-18.42,16.42-7.43,5.02-15.69,8.75-24.57,10.23-1.58.26-.91,2.67.66,2.41,14.65-2.44,27.55-10.86,38.08-21.03,2.7-2.61,5.1-5.49,7.74-8.15,1.12-1.12,2.6-2.38,4.3-2.13,1.84.27,2.38,1.77,2.02,3.45-1.62,7.51-6.98,14.3-12.36,19.55-5.97,5.83-13.21,10.33-21.16,12.91-1.52.5-.87,2.91.66,2.41h0Z"/><path class="cls-2" d="m137.18,137.15c3.94-.56,7.77-1.81,11.26-3.74,3.08-1.7,5.83-3.92,9.01-5.46,1.95-.95,4.04-1.6,6.13-2.17.88-.24,1.83-.52,2.75-.52.25,0,.53-.02.75.11-.16-.1-.05-.1-.05.02,0,.97-.64,1.98-1.13,2.8-.8,1.34-1.74,2.59-2.73,3.8-4.15,5.11-9.05,10.01-14.54,13.67-3.35,2.24-7.01,4.05-10.88,5.22-3.41,1.03-6.93,1.45-10.47,1.73-15.21,1.21-30.53,2.16-45.79,2.33-3.79.04-7.62.06-11.4-.36-1.56-.17-3.66-.73-5.48-1.11-3.17-.67-6.39-1.13-9.62-.61-2.27.37-4.44,1.07-6.29,2.46-2.01,1.52-3.67,3.43-5.2,5.42-4.73,6.15-8.25,13.24-11.27,20.36-.9,2.12-1.76,4.26-2.57,6.41-.57,1.51,1.85,2.16,2.41.66,3.04-8.05,6.64-16.02,11.45-23.18,1.61-2.4,3.37-4.74,5.51-6.7,1.68-1.54,3.35-2.32,5.56-2.82,5.26-1.18,10.26,1.01,15.44,1.6,3.88.44,7.81.41,11.71.36,6.62-.08,13.25-.39,19.86-.73,9.14-.48,18.32-.89,27.43-1.74,7.8-.73,15.01-3.08,21.49-7.57,5.49-3.8,10.46-8.7,14.64-13.9,1.67-2.08,3.82-4.58,4.3-7.3.2-1.11-.03-2.25-1.02-2.92-1.35-.91-3.27-.47-4.73-.12-4.05.98-7.83,2.56-11.33,4.81s-6.52,4.28-10.33,5.5c-1.8.58-3.65.99-5.52,1.26-1.59.22-.91,2.63.66,2.41h0Z"/><path class="cls-2" d="m149.08,113.95c1.98-2.65,3.73-5.47,5.19-8.45,1.26-2.57,2.57-5.4,2.35-8.34-.19-2.43-1.42-4.97-3.85-5.82-2.64-.93-5.43.55-7.13,2.54-1.85,2.17-3.01,4.87-4.45,7.31s-3.05,4.88-4.77,7.19c-3.26,4.37-7.04,8.43-11.36,11.76-4.73,3.64-10.12,6.33-15.99,7.5-1.58.31-.91,2.73.66,2.41,9.65-1.93,17.96-7.83,24.46-15.04,3.39-3.76,6.36-7.89,8.96-12.23,1.4-2.34,2.49-5.05,4.26-7.14,1.61-1.9,4.71-3.23,6.16-.42s-.09,6.2-1.35,8.81c-1.48,3.05-3.26,5.94-5.29,8.65-.96,1.29,1.21,2.54,2.16,1.26h0Z"/><path class="cls-2" d="m93.94,118.09c5.31-15.2,6.46-31.7,3.26-47.48-.77-3.79-1.79-7.52-3.03-11.17-.26-.76-1.47-.43-1.21.33,5.23,15.34,6.2,31.97,2.69,47.8-.77,3.45-1.74,6.85-2.91,10.19-.27.76.94,1.09,1.21.33h0Z"/><path class="cls-1" d="m57.56,56.2c1.17-.77,9-5.77,18.8-3.05,11.12,3.09,15.05,13.44,15.41,14.45-.92.64-9.47,6.35-19.95,2.86-10.48-3.49-13.9-13.2-14.25-14.26Z"/><path class="cls-1" d="m134.14,49.5c-.31,1.36-2.55,10.39-11.53,15.15-10.19,5.42-20.17.61-21.12.13.23-1.1,2.5-11.13,12.5-15.81,10-4.69,19.17,0,20.15.52Z"/><path class="cls-1" d="m94.16,23.59c1.05.68,7.48,5.02,8.62,13.13,1.02,7.3-2.63,14.75-9.31,18.96-6.13-4.13-9.46-11.2-8.57-18.24,1.12-8.83,8.34-13.3,9.26-13.85Z"/><path class="cls-2" d="m87.98,65.36c-9.13-3.7-18.54-6.67-28.13-8.9-.78-.18-1.12,1.02-.33,1.21,9.6,2.23,19,5.2,28.13,8.9.75.3,1.07-.91.33-1.21h0Z"/><path class="cls-2" d="m94.27,51.05c.08-7.25.33-14.5.76-21.75.05-.8-1.2-.8-1.25,0-.42,7.24-.67,14.49-.76,21.75,0,.8,1.24.81,1.25,0h0Z"/><path class="cls-2" d="m127.56,52.18c-8.31,2.31-16.33,5.56-23.9,9.69-.71.39-.08,1.47.63,1.08,7.48-4.08,15.39-7.29,23.6-9.56.77-.21.45-1.42-.33-1.21h0Z"/><path class="cls-2" d="m48.07,67.78c-2.19-.33-4.39-.44-6.6-.27-.65.05-1.28.54-1.25,1.25.03.63.55,1.3,1.25,1.25,1.02-.08,2.05-.1,3.08-.07.5.02,1.01.05,1.51.09.24.02.48.05.72.07.12.01.24.03.36.04-.26-.03.22.03.27.04.64.1,1.38-.16,1.54-.87.14-.59-.18-1.43-.87-1.54h0Z"/><path class="cls-2" d="m45.54,47.41c-2.58-1.72-5.45-3.01-8.45-3.82-.63-.17-1.39.21-1.54.87s.2,1.36.87,1.54c2.84.76,5.38,1.92,7.85,3.57.56.37,1.38.11,1.71-.45.36-.61.11-1.33-.45-1.71h0Z"/><path class="cls-2" d="m55.68,25.03c-1.79-2.7-3.57-5.41-5.36-8.11-.37-.56-1.1-.8-1.71-.45-.56.33-.82,1.14-.45,1.71,1.79,2.7,3.57,5.41,5.36,8.11.37.56,1.1.8,1.71.45.56-.33.82-1.14.45-1.71h0Z"/><path class="cls-2" d="m84.97,8.79c-1.06-2.45-1.84-5.19-2.29-7.88-.11-.67-.93-1.04-1.54-.87-.71.19-.99.87-.87,1.54.49,2.93,1.37,5.75,2.54,8.48.27.62,1.18.76,1.71.45.64-.37.72-1.09.45-1.71h0Z"/><path class="cls-2" d="m117.14,16.04c1.8-1.86,3.71-3.6,5.74-5.21.51-.41.46-1.35,0-1.77-.55-.5-1.22-.44-1.77,0-2.02,1.61-3.94,3.35-5.74,5.21-.46.47-.5,1.31,0,1.77s1.28.5,1.77,0h0Z"/><path class="cls-2" d="m141.58,35.86c1.03-.72,2.12-1.35,3.25-1.88.15-.07.29-.14.44-.2.07-.03.15-.07.22-.1-.11.05-.1.04.04-.01.26-.11.53-.21.79-.31.61-.22,1.23-.42,1.85-.58s1.08-.9.87-1.54-.86-1.06-1.54-.87c-2.56.69-5.01,1.82-7.19,3.34-.54.37-.83,1.11-.45,1.71.34.53,1.14.85,1.71.45h0Z"/><path class="cls-2" d="m140.9,61.37c2.72.6,5.43,1.2,8.15,1.81.64.14,1.38-.19,1.54-.87.14-.63-.19-1.39-.87-1.54l-8.15-1.81c-.64-.14-1.38.19-1.54.87-.14.63.19,1.39.87,1.54h0Z"/><path class="cls-2" d="m61.04,85.74c-1.71,1.88-3.28,3.89-4.67,6.01-.36.55-.13,1.41.45,1.71.63.33,1.33.14,1.71-.45.33-.5.67-1,1.02-1.48.17-.24.35-.49.53-.73.08-.11.17-.23.25-.34.04-.06.09-.11.13-.17.12-.16-.18.23.03-.04.74-.95,1.51-1.86,2.32-2.75.44-.48.51-1.3,0-1.77-.48-.44-1.3-.52-1.77,0h0Z"/><path class="cls-2" d="m125.62,87.39c1.22,1.69,2.59,3.27,4.13,4.68.48.44,1.3.51,1.77,0,.44-.48.52-1.3,0-1.77-.72-.66-1.41-1.35-2.06-2.08-.32-.36-.63-.73-.93-1.1-.08-.09-.15-.19-.22-.28-.1-.13.01.01.05.06-.04-.05-.08-.11-.12-.16-.15-.2-.3-.41-.45-.61-.19-.27-.41-.48-.75-.57-.3-.08-.7-.05-.96.13-.53.34-.86,1.14-.45,1.71h0Z"/></g></svg>