<?xml version="1.0" encoding="UTF-8"?><svg id="Layer_2" xmlns="http://www.w3.org/2000/svg" width="44.47" height="51" viewBox="0 0 44.47 51"><defs><style>.cls-1{fill:#fff;stroke-width:0px;}</style></defs><g id="Layer_1-2"><path class="cls-1" d="m44.47,20.96c-4.55,0-8.76-1.45-12.2-3.92v17.82c0,8.9-7.24,16.14-16.14,16.14-3.44,0-6.63-1.08-9.25-2.92-4.16-2.92-6.89-7.75-6.89-13.21,0-8.9,7.24-16.14,16.14-16.14.74,0,1.46.06,2.17.16v8.95c-.69-.21-1.42-.34-2.17-.34-4.06,0-7.37,3.31-7.37,7.37,0,2.83,1.61,5.29,3.95,6.52,1.02.54,2.18.85,3.42.85,3.97,0,7.21-3.16,7.36-7.09V0h8.77c0,.76.07,1.5.21,2.22.62,3.34,2.6,6.21,5.35,8,1.91,1.25,4.19,1.98,6.64,1.98v8.77h0Z"/></g></svg>