<?xml version="1.0" encoding="UTF-8"?><svg id="Layer_2" xmlns="http://www.w3.org/2000/svg" width="51.35" height="51.35" viewBox="0 0 51.35 51.35"><defs><style>.cls-1{fill:#fff;stroke-width:0px;}</style></defs><g id="Layer_1-2"><path class="cls-1" d="m40.65,51.35H10.7c-5.9,0-10.69-4.79-10.7-10.7V10.7C0,4.79,4.79,0,10.7,0h29.95c5.9,0,10.69,4.79,10.7,10.7v29.95c0,5.9-4.79,10.69-10.7,10.7ZM10.7,4.28c-3.54,0-6.42,2.87-6.42,6.42v29.95c0,3.54,2.87,6.42,6.42,6.42h29.95c3.54,0,6.42-2.87,6.42-6.42V10.7c0-3.54-2.87-6.42-6.42-6.42H10.7Zm9.29,32.1c-.89,0-1.77-.24-2.54-.69-1.55-.89-2.5-2.54-2.49-4.32v-11.39c0-2.76,2.23-5,5-5,.87,0,1.73.23,2.49.66l11.29,5.64c2.43,1.31,3.33,4.34,2.02,6.77-.44.82-1.11,1.5-1.92,1.97l-11.5,5.75c-.72.41-1.53.62-2.36.62h0Zm-.05-17.12c-.12,0-.23.03-.34.09-.23.13-.36.37-.36.62v11.39c0,.4.33.72.73.72.12,0,.24-.03.34-.09l11.5-5.75c.17-.14.27-.35.26-.57,0-.26-.13-.5-.36-.62l-11.28-5.64c-.15-.09-.32-.14-.49-.15h0Z"/></g></svg>