<?xml version="1.0" encoding="UTF-8"?><svg id="Layer_1" xmlns="http://www.w3.org/2000/svg" viewBox="0 0 33.22 86.73"><defs><style>.cls-1{fill:none;}.cls-1,.cls-2{stroke:#fff;stroke-miterlimit:10;}.cls-2{fill:#fff;}</style></defs><path class="cls-2" d="M2.32,85.04c.94-1.49,2.3-3.33,4.2-5.17,1.59-1.53,3.14-2.67,4.47-3.5,1.03-.59,2.47-1.28,4.29-1.75,2.12-.55,3.96-.59,5.26-.53.5.1,2,.47,3.07,1.84,1.2,1.55,1.36,3.76.44,5.69-.37.48-1.68,2.08-4.03,2.63-2.99.69-5.32-.88-5.69-1.14-.58-.5-1.01-1.01-1.31-1.49-2.38-3.66-.34-8.44,0-9.2,1.08-2.26,2.17-4.53,3.25-6.79l1.31-6.87c-.01-1.24-.21-4.92-2.89-8.32-3.66-4.64-9.06-5.1-9.96-5.16-.9.7-1.32,1.33-1.25,1.92.17,1.48,3.5,2.59,9.99,3.33,1.06.06,6.67.29,11.3-3.94,3.64-3.33,4.51-7.44,4.73-8.77-.1-1.05-.29-2.19-.61-3.41-1.17-4.39-3.53-7.51-5.26-9.37-.4-.59-.45-1.26-.18-1.58.35-.4,1.37-.39,2.1.44,1.28,1.02,3.25,2.85,4.82,5.69,1.91,3.45,2.29,6.67,2.36,8.41-.06,1.03-.45,6.42-4.99,10.42-3.71,3.28-7.92,3.62-9.2,3.68-1.79.5-5.29,1.21-9.55.35-3.63-.74-6.25-2.3-7.71-3.33-1-1.36-1.03-3.2-.09-4.55.89-1.28,2.48-1.9,4.03-1.58,6.52.5,12.07,4.07,14.28,9.37,1.45,3.49,1.05,6.78.7,8.5-.82,2.69-1.64,5.37-2.45,8.06-1.09,2.48-2.18,4.96-3.27,7.45,0,.47.02.93.03,1.4.06.27.61,2.65,2.8,3.59,1.05.45,2.03.38,2.53.3,2.28-1.06,3.27-2.97,2.8-4.14-.06-.15-.36-.84-1.57-1.23-.63-.04-1.3-.04-2.01,0-3.14.19-5.66,1.25-7.39,2.2-1.81,1.09-3.03,2.21-3.82,3.05-.77.82-1.78,1.98-3.5,3.5-1.07.95-1.75,1.33-2.01,1.14-.18-.13-.18-.51,0-1.14Z"/><path class="cls-1" d="M14.54,13.37c1.01-.59-1.62-4-.07-7.29,1.56-3.31,6.09-3.82,5.85-4.86-.14-.61-1.81-.95-3.16-.55-1.42.42-1.47.98-3.54,3.44-2.77,3.3-3.33,3.41-3.4,4.44-.2,2.67,3.39,5.36,4.32,4.82Z"/><path class="cls-1" d="M28.22,13.58c.59-1.37.21-3.19-.79-4.2-1.55-1.57-4.9-1.49-4.91-1.49h0s2.83-.88,3.24-2.28c.37-1.26-1.14-3.27-2.99-3.89-2.17-.72-4.27.66-5.86,1.7-1.62,1.06-3.21,2.1-3.59,3.77-.85,3.69,4.53,8.99,9.64,8.93.62,0,4.22-.13,5.26-2.54Z"/><path class="cls-2" d="M21.63,18.04c.37-.54-.17-1.76-.23-1.9-.01-.03-.2-.46-.47-.82-1.26-1.66-5.29-2.85-7.27-5.69-.4-.58-1.13-1.62-1.49-3.15-.33-1.41-.2-2.6-.44-2.63-.17-.02-.4.62-.79,1.75-.52,1.5-.45,1.67-.7,1.84-.58.38-1.33-.27-3.68-.96-.71-.21-1.76-.52-1.84-.35-.11.24,1.75,1.26,2.8,1.93,5.98,3.79,5.96,8.79,10.77,10.16.31.09,2.69.74,3.33-.18Z"/></svg>