<?xml version="1.0" encoding="UTF-8"?><svg id="Layer_2" xmlns="http://www.w3.org/2000/svg" viewBox="0 0 511.07 508.52"><defs><style>.cls-1{fill:#fff;stroke:#fff;stroke-miterlimit:10;}</style></defs><g id="cookhat"><path class="cls-1" d="M430.15,474.87c-5.07-7.94-6.53-15.43-7-18-8.51-46.2-12.77-69.31-23.71-147.73-10.88-78.02-33.43-101.33-17.29-118.27,16.09-16.88,43.15,1.42,75-20,17.26-11.61,34.93-34.22,32-56-5.67-42.1-86.25-65.89-109-45-12.38,11.37-6.33,34.8-13,36-7.93,1.42-11.5-32.59-38-58-29.51-28.3-68.84-28.08-73-28-6.65.14-38.14,1.44-64,24-29.7,25.91-34.57,64.66-42,63-4.64-1.04-.33-15.63-8-25-18.16-22.19-102.73-14.21-117,34-8.3,28.05,8.64,64.87,34,75,29.04,11.6,53.47-18.05,69-7,5.19,3.69,18.56,18.46-20,141-27.59,87.67-47.14,120.52-30,143,8.19,10.75,24.79,13.83,58,20,35.01,6.5,61.11,6.05,106,5,41.04-.96,70.13-1.63,103-7,18.61-3.04,38.07-2.17,56-8,7.72-2.51,17.69-6.44,29-3,9.15,2.78,19.85,10.59,18.91,16.45-1.16,7.21-19.97,11.42-100.91,14.55-76.18,2.95-125,2-125,2-140.71-2.74-153.45-12.4-160-22-6.6-9.68-8.65-21.87,11-98,27.74-107.46,50.64-155.95,32-172-13.06-11.25-30.64,7.19-57.82-4C17.88,199.33-6.14,157.17,2.15,118.87,12.7,70.14,72.05,43.77,108.1,52.25c17.38,4.09,29.13,16.22,45.05,10.62,12.66-4.45,13.49-15.01,26-29C206.68,3.1,250.18,1.09,257.15.77c11.75-.54,38.34-1.77,62,14.1,22.27,14.95,22.24,31.83,41,37,18.27,5.03,26.8-8.64,49-12,38.17-5.77,91.78,22.74,100.23,66,4.81,24.64-5.42,52.07-23.23,69-30.4,28.89-65.28,10.44-83,33-15.51,19.74,1.13,46.67,22,121,18.77,66.86,36.89,157.5,23.91,162.45-4.48,1.71-14.22-9.1-18.91-16.45Z"/><path class="cls-1" d="M82.69,400.71c49.01,6.09,104.2,10.37,164.58,10.84,61,.48,116.77-3,166.27-8.42-1.58-9.63-2.33-14.17-2.33-14.17-131.86,8.24-165.91,8.63-165.91,8.63-87.42,1.01-145.59-5.14-153-9-.51-.27-3-1.68-5.23-.77-3.45,1.4-4.28,7.5-4.39,12.88Z"/><path class="cls-1" d="M76.35,420.92c-2.43,3.72-5.19,9.18-3.24,13.46,4.05,8.91,25.88,6.92,32.82,6.35,46.65-3.8,93.6,4.3,140.38,2.87,10.18-.31,98.39-2.74,145.11-6.96,7.15-.64,24.67-2.37,26.29-9.58.68-3.03-1.65-6.16-3.56-8.2-49.08,5.98-103.99,10.16-163.85,10.73-63.82.61-122.17-3-173.95-8.68Z"/><path class="cls-1" d="M236.31,44.6c-1.62-3-20.1.46-34,12-19.35,16.06-24.34,43.24-21,45,2.38,1.25,7.98-10.89,28-31,17.47-17.55,28.35-23.51,27-26Z"/><path class="cls-1" d="M261.31,35.6c3.04-1.12,9.57,2.88,9,8-.54,4.89-7.18,7.57-10,6-3.71-2.06-2.84-12.58,1-14Z"/></g></svg>