<?xml version="1.0" encoding="UTF-8"?><svg id="Layer_1" xmlns="http://www.w3.org/2000/svg" viewBox="0 0 125.72 118.81"><defs><style>.cls-1{fill:none;}.cls-1,.cls-2{stroke:#fff;stroke-miterlimit:10;}.cls-2{fill:#fff;}</style></defs><path class="cls-2" d="M4.71,116.53c22.26-6.53,37.91-17.64,37.97-29.1.03-6.6-5.1-15.88-9.44-15.72-2.6.09-5.4,3.6-4.95,6.33.79,4.81,11.88,8.51,21.22,7.36,9.53-1.18,17.08-7.4,23.72-12.88,3.74-3.08,6.7-5.98,6.7-5.98,5.42-5.29,8.58-9.6,9-9.31.33.24-1.42,3.24-2.03,4.25-15.7,25.82-38.5,26.47-38.5,26.47-9.26.27-21.74-3.11-22.99-9.39-.75-3.74,2.52-8.47,6.11-9.26,5.6-1.23,12.46,6.51,13.93,13.99.18.94.81,4.57-.79,9.59-4.95,15.53-24,21.65-27.16,22.67-8.25,2.65-16.88,3.09-16.99,2.56-.06-.29,2.26-1.01,4.2-1.58Z"/><path class="cls-1" d="M79,32.44c-.37-.51,5.26-5.04,11.73-10.38,5.48-4.51,13.8-11.45,25.45-18.53,3.9-2.37,6.45-3.71,8.01-2.69,1.77,1.15.92,4.46-.2,13.73-.4,3.29-1.58,13.6-2.3,21.35-.54,5.81-.76,9.56-1.91,9.72-.71.1-1.17-1.28-3.28-4.73-2.28-3.71-3.9-5.62-6.98-9.24-2.77-3.26-3.59-3.74-4.32-3.57-.77.17-1.21,1.01-2.63,4.93-1.95,5.38-2.14,6.6-2.89,6.7-.98.14-2.36-2.25-5.06-7.03-1.93-3.41-2.22-4.27-3.35-4.66-1.06-.37-1.96,0-6.77,2.17-4.98,2.25-5.43,2.36-5.52,2.23Z"/><line class="cls-2" x1="91.28" y1="28.04" x2="123.57" y2=".57"/><line class="cls-2" x1="105.21" y1="28.11" x2="123.57" y2=".57"/></svg>