<svg width="27" height="22" viewBox="0 0 27 22" fill="none" xmlns="http://www.w3.org/2000/svg">
<path d="M22.8225 0.976098L1.27164 17.5185C0.569331 18.0576 0.437019 19.064 0.976107 19.7663L1.07885 19.9001C1.61794 20.6024 2.62429 20.7348 3.3266 20.1957L24.8775 3.65323C25.5798 3.11414 25.7121 2.10779 25.173 1.40548L25.0702 1.27163C24.5312 0.569322 23.5248 0.43701 22.8225 0.976098Z" fill="#F2500B"/>
<path d="M25.7284 17.5271L4.17758 0.98461C3.47527 0.445519 2.46892 0.577829 1.92983 1.28013L1.82709 1.41399C1.288 2.11629 1.4203 3.12264 2.12261 3.66173L23.6734 20.2042C24.3757 20.7433 25.3821 20.611 25.9212 19.9087L26.0239 19.7749C26.563 19.0726 26.4307 18.0662 25.7284 17.5271Z" fill="#F2500B"/>
</svg>
