<?xml version="1.0" encoding="UTF-8"?><svg id="Layer_1" xmlns="http://www.w3.org/2000/svg" viewBox="0 0 126.1 52.58"><defs><style>.cls-1{fill:none;stroke:#fff;stroke-miterlimit:10;stroke-width:2px;}</style></defs><path class="cls-1" d="M7.46,41.46c1.7.03,3.32-.79,5.02-.87,1.34-.07,2.66.33,4.01.43.84.06,1.69.01,2.53-.04,1.07-.07,1.81-.44,2.05-.52,1.09-.38,3.02-.61,6.71.11,1.15-3.45,2.55-7.06,4.26-10.77.44-.96.89-1.9,1.35-2.81.33-.47.66-.94.98-1.41-.77.23-1.9.45-3.18.2-.53-.1-.55-.28-1.19-.35-1.3-.14-2.61-.21-3.92-.21-1.08,0-2.18.06-3.23.32-.74.18-1.44.47-2.15.75-3.42,1.36-7.08,2.68-10.72,2.06-1.86,2.32-3.51,4.81-4.91,7.43-.45.84-.87,1.7-1.35,2.53-.26.45-1.22,1.47-1.05,1.98.3.86,4.02,1.17,4.77,1.18Z"/><path class="cls-1" d="M34.36,25.57c.31-.56-.39-1.28-.12-1.86.09-.19.26-.32.43-.44.96-.7,2.12-1.44,3.26-1.09.4.12.74.37,1.08.61.84.61,1.69,1.21,2.53,1.82,3.77,2.7,7.88,5.52,12.52,5.45.18,0,.38,0,.52.11.13.1.18.26.22.42.13.58.07,1.18.01,1.77-.19,1.92-.38,3.85-.91,5.69-.32,1.1-.76,2.16-1.08,3.26-.64,2.2-.79,4.5-.94,6.78-2.01-.18-4.02-.36-6.03-.55-.37-.03-.75-.07-1.05-.29-.27-.2-.42-.52-.61-.81-.56-.85-1.47-1.4-2.4-1.84-1.18-.56-2.41-.98-3.68-1.26-.69-.15-1.39-.26-2.06-.49-1.12-.39-2.1-1.11-3.24-1.43-1.66-.47-3.54-.05-5.06-.86.65-1.33,1.3-2.67,1.96-4,.32-.65.64-1.31.69-2.03"/><path class="cls-1" d="M2.49,40.12c-1.31.67-1.87,2.69-.79,3.68.88.81,2.26.6,3.43.39,5.43-.96,11.05-.81,16.42.44-.18-.47-.37-1.24-.07-1.98.53-1.32,2.42-2.14,4.58-1.64-1.62.81-3.24,1.63-4.86,2.44-2.45.39-4.92-.42-7.4-.58-1.02-.07-2.04-.02-3.06.04-2.6.17-5.2.46-7.78.87,1.55.06,3.04-.54,4.54-.93,3.41-.89,7-.71,10.53-.53-2.53-.45-5.1-.87-7.65-.61-2.71.28-5.34,1.33-8.06,1.28.67-.21,1.35-.42,2.02-.64"/><path class="cls-1" d="M21.56,44.82c1.2-.19,2.39-.48,3.54-.86.41-.14.82-.29,1.17-.54.91-.65,1.26-1.83,1.47-2.93"/><path class="cls-1" d="M27.51,40.97c-.07.55.28,1.05.65,1.46,2.03,2.22,5.07,3.15,7.96,3.98,1.51.43,3.04.87,4.6.99,1.43.11,2.88-.05,4.3.16-2.79-1.33-5.66-2.47-8.6-3.42-1.87-.6-3.84-1.13-5.78-.79,3.05,1.04,6.13,2.02,9.22,2.94l-12.36-5.32Z"/><path class="cls-1" d="M76.85,31.06c1.8.79,3.77,1.21,5.73,1.22.67,0,1.38-.06,1.9-.47.81-.64.82-1.82.83-2.65.04-3.5-.19-6-.29-7.98-.14-2.78.03-3.3-.39-4.81-.29-1.05-.47-1.15-1.2-3.27-.73-2.11-1.28-3.19-1.11-4.13.21-1.19.46-2.52.61-3.72.15-1.2.16-2.49-.46-3.54-.61-1.04-2.03-1.69-3.09-1.1.67.98,2.06,1.38,3.15.91-.93-.32-1.89-.52-2.87-.59-.18,2.2-.27,4.41-.28,6.62,0,.16,0,.34.1.48.11.16.31.22.49.27.77.22,1.54.44,2.31.66-.93.11-1.9-.67-2.8-.93-1.78,7.35-2.55,15.48-2.64,23.04Z"/><path class="cls-1" d="M113.69,43.41c-.46-.82-1.31-1.34-1.98-2.01-.61-.6-1.08-1.33-1.75-1.86s-1.62-.82-2.34-.38c-1.43,1.1,5.27,11.48,5.89,12.77,1.79-1.9.68-8.29.83-10.88.33-5.69.31-11.43.18-17.13.1,2.59.72,5.16,1.82,7.5.2.42.5.89.95.88.35,0,.62-.3.82-.59,1.17-1.7,1.26-4,.73-6.01s-1.63-3.81-2.71-5.58c2.91,1.9,5.99,3.54,9.19,4.88.62-1.62-.43-3.5-1.9-4.36s-3.22-.95-4.91-1.02c1.5-.59,2.98-1.23,4.45-1.89,1.37-.62,2.97-1.69,2.77-3.23-.18-1.38-1.76-2.06-3.11-2.15-2.7-.19-5.72,1.24-6.5,3.91,1.09-1.67,1.99-3.48,2.66-5.37.46-1.3.5-3.24-.81-3.54-1.06-.24-1.89.94-2.29,1.98-.93,2.39-1.39,4.97-1.33,7.55-.09-1.64-.29-3.33-1.1-4.74s-2.38-2.47-3.95-2.2c-.23.04-.46.11-.62.29-.25.28-.21.7-.15,1.07.5,3.05,2.03,5.9,4.26,7.97-2.48-2.59-5.78-5.4-9.12-4.22.03,2.05,1.99,3.5,3.88,4.11,1.9.61,3.98.74,5.66,1.82-2.33.19-4.62.91-6.66,2.09-.88.51-1.76,1.17-2.11,2.15s.13,2.31,1.12,2.48c.66.11,1.29-.28,1.83-.68,2.08-1.51,3.98-3.27,5.65-5.24-.39,1.51-1.78,2.48-2.61,3.79s-.65,3.63.85,3.8c.92.11,1.7-.7,2.18-1.52,1.21-2.05,1.6-4.59,1.07-6.92-.38-.04.21-2.66.03-2.31-.53.99-.87,2.33-.13,3.17.71.8,2.14.55,2.71-.36s.31-2.21-.42-2.98-1.84-1.1-2.89-1.06"/></svg>