<?xml version="1.0" encoding="UTF-8"?><svg id="Layer_1" xmlns="http://www.w3.org/2000/svg" viewBox="0 0 102.74 158.11"><defs><style>.cls-1{fill:none;stroke:#fff;stroke-miterlimit:10;stroke-width:2px;}</style></defs><path class="cls-1" d="M19.39,156.56c-2.82-1.31-6.06-1.16-9.12-1.66s-6.39-2.04-7.23-5.03c-.9-3.16,1.41-6.35,4.02-8.34s5.73-3.46,7.64-6.14c-3.3-2.57-6.61-5.15-9.91-7.72-2.24-1.74-4.73-4.49-3.43-7.01.45-.88,1.29-1.48,2.1-2.05,2.9-2.04,5.8-4.08,8.71-6.12-3.79-1.7-6.78-5.5-6.7-9.65s3.85-8.11,7.97-7.67c-3.24-4.54-5.88-9.51-7.82-14.73-.3-.82-.55-1.85.05-2.49.39-.4,1-.48,1.55-.54,10.85-1.04,21.83-.68,32.58,1.06,3.03.49,6.13,1.12,8.69,2.8s4.52,4.64,4.16,7.68c-.48,4.06-5.62,6.76-9.24,4.85,3.24,2.35,6.77,5.15,7.24,9.12.55,4.67-3.32,8.55-6.86,11.64,5.66,4.74,4.33,15.3-2.32,18.49,5.51,3.86,11.59,8.76,11.64,15.48,0,1.01-.15,2.09-.8,2.86-.59.7-1.48,1.06-2.33,1.37-11.97,4.37-25.11,5.47-37.64,3.13"/><path class="cls-1" d="M54.18,138.91c10.07-1.06,19.97-3.65,29.27-7.66-1.88,2.07-4,3.93-6.3,5.51,7.42-.39,14.27-4.91,21.69-4.67-5.96,3.06-11.92,6.12-17.88,9.18,3.11-.9,6.36-1.34,9.61-1.29-10.83,2.1-21.49,5.12-31.82,8.99"/><path class="cls-1" d="M21.97,76.36c.07-6.96.51-13.91,1.33-20.82.28-2.35.61-4.75,1.7-6.85,1.3-2.54,3.63-4.52,4.5-7.24"/><path class="cls-1" d="M34.23,76.6c1.35-6.41,4.68-11.69,7.03-17.69,2.06-5.24,3.54-9.77,6.88-14.55,1.92-2.75,3.85-5.49,5.77-8.24"/><path class="cls-1" d="M22.19,68.92c-2.97-2.87-5.25-5.42-6.9-7.4-1.42-1.7-2.35-3.02-2.16-4.61.16-1.29,1.15-2.44,2.41-2.78,1.31-.35,2.46.47,3.48,1.18,2.08,1.46,3.19,3.47,3.78,4.94"/><path class="cls-1" d="M24.28,70.83c.37-.71,1.61-.13,1.64.67s-.61,1.45-1.2,1.99c-.56.52-1.13,1.03-1.69,1.55"/><path class="cls-1" d="M42.83,56.98l7.75-1.02c-.28,1.2-.77,2.57-1.59,3.96-3.23,5.42-9.22,6.91-10.87,7.26"/><path class="cls-1" d="M43.15,48.23c.49,1.17.58,1.46.54,1.48-.12.06-2.16-3.23-3.08-7.4-.47-2.12-.77-3.66.1-4.96.72-1.08,2.02-1.61,3.24-2.07.34-.13.7-.26,1.04-.16.51.14.77.65.89.88.66,1.29,1.87,3.67,3.4,6.76"/><path class="cls-1" d="M38.84,36.73c2.01-2.53,2.73-6.03,1.9-9.15,2.26.89,5.13,1.67,6.85-.04,1.67-1.66.91-4.67-.83-6.25s-4.12-2.19-6.32-3.03c-.52-.2-1.08-.45-1.35-.94-.17-.31-.2-.69-.19-1.05.05-2.66,1.76-5.33.87-7.84-1.12-3.17-5.84-3.6-8.53-1.59s-3.85,5.44-4.87,8.65c-2.82-1.33-5.67-2.59-8.54-3.8-.4-.17-.83-.34-1.26-.25-.58.12-.96.66-1.27,1.16-.79,1.24-1.6,2.6-1.51,4.07.11,1.76,1.56,3.21,3.19,3.87s3.45.68,5.22.69c-1.92.74-3.71,1.79-5.3,3.09-1.12.92-2.17,2.03-2.54,3.43s.17,3.12,1.51,3.68c1.52.64,3.32-.41,4.89.11-.35,1.61-.69,3.21-1.04,4.82-.24,1.12-.44,2.44.33,3.3.59.66,1.57.8,2.45.81,2.11.02,7.88-3.11,7.92.1,3.03.54,6.57-1.51,8.41-3.83Z"/><path class="cls-1" d="M50.93,34.37c-.08.33-.14.69,0,1,.21.49.8.67,1.31.8,3.73.91,8.11,1.69,11.07-.76-.67,3.58,3.59,6.71,7.11,5.78s5.72-4.7,5.86-8.34c1.67.54,3.38,1.09,5.14,1.04s3.6-.81,4.47-2.33c.56-.97.67-2.15.54-3.27-.35-2.94-2.39-5.62-5.13-6.73,1.58-1.43,3.58-2.33,5.16-3.75s2.71-3.75,1.8-5.68c-.32-.69-.88-1.25-1.45-1.75-2.92-2.55-7.38-3.99-10.67-1.94.86-2.43,1.43-5.74-.79-7.04-2.31-1.35-4.96.98-6.68,3.01-.84.99-1.78,2.02-3.04,2.34-1.19.3-2.44-.08-3.67-.12-2.72-.09-5.41,1.72-6.34,4.28s-.04,5.67,2.11,7.35c-2.17,1.51-3.96,3.56-5.16,5.91-.26.51-.5,1.05-.49,1.63.03,1.55,1.73,2.23,2.97,2.61-1.5,2.01-3.47,3.26-4.13,5.95Z"/></svg>