<?xml version="1.0" encoding="UTF-8"?><svg id="Layer_1" xmlns="http://www.w3.org/2000/svg" viewBox="0 0 40.24 30.5"><defs><style>.cls-1{stroke-width:.75px;}.cls-1,.cls-2,.cls-3,.cls-4{fill:none;stroke:#fff;stroke-miterlimit:10;}.cls-2{stroke-width:2px;}.cls-4{stroke-width:.25px;}</style></defs><path class="cls-2" d="M3.95,14.24c1.44-.12,2.9.02,4.28.43,1.84,1.98,5.07,2.62,7.56,1.49,1.1-.5,2.44-1.29,3.4-.57.36.27.55.71.89,1.02,1.06.97,2.74.19,4.17-.03,2.2-.34,4.35.77,6.57.92,3.05.22,6.2-1.36,9.09-.4"/><path class="cls-2" d="M.23,16.73c.71-.17,1.25.64,1.41,1.33s.31,1.53.99,1.81c.52.21,1.14-.05,1.53-.44.15-.15.3-.33.52-.37.25-.04.47.13.67.29.62.5,1.36.98,2.16.9.97-.09,1.71-.97,2.67-1.1"/><path class="cls-2" d="M14.79,18.62c-.18.94.18,1.96.91,2.6s1.81.88,2.76.62c.46-.13.88-.36,1.35-.44,1.31-.21,2.44.82,3.34,1.77.82-1.17,1.85-2.46,3.3-2.51.66-.02,1.29.22,1.94.35,2.76.56,5.45-1.02,7.8-2.52"/><path class="cls-2" d="M14.98,15.04c2.43-4.06,5.7-7.65,9.56-10.5.66-.49,1.36-.96,2.16-1.19.64-.19,1.32-.21,1.97-.38,1.95-.52,3.66-2.39,5.61-1.87,1.43,2.45.2,5.58-1.55,7.83s-4.03,4.2-5.04,6.85"/><path class="cls-3" d="M6.06,13.73c.84-.71,2.57-1.98,5.12-2.59,2.6-.63,4.76-.27,5.84-.01"/><circle class="cls-4" cx="9.54" cy="7.04" r=".64"/><circle class="cls-4" cx="28.83" cy="28.86" r="1.51"/><circle class="cls-4" cx="34.92" cy="10.96" r=".76"/><circle class="cls-1" cx="29.2" cy="5.64" r=".76"/><path class="cls-1" d="M10.56,13.28c1.07.28,2.17-.22,3.23-.53"/><path class="cls-1" d="M25.33,13.08c1.59.78,3.29,1.32,5.04,1.59.62.1,1.25.16,1.84.37.96.34,1.75,1.05,2.5,1.74"/><circle class="cls-4" cx="25.05" cy="10.49" r=".47"/><circle class="cls-4" cx="26.85" cy="9.56" r=".47"/><circle class="cls-4" cx="26.38" cy="11.09" r=".3"/><circle class="cls-4" cx="24.58" cy="11.72" r=".3"/></svg>