<?xml version="1.0" encoding="UTF-8"?><svg id="Layer_1" xmlns="http://www.w3.org/2000/svg" viewBox="0 0 110.07 129.08"><defs><style>.cls-1{stroke-width:2px;}.cls-1,.cls-2{fill:none;stroke:#fff;stroke-miterlimit:10;}</style></defs><path class="cls-1" d="M43.96,124.81c-4.49-9.21-7.24-19.27-8.04-29.49-.26-3.36-.32-6.73-.38-10.1-.08-4.47-.15-8.94-.23-13.42,0-.38-.02-.77-.19-1.1-.47-.88-1.73-.82-2.73-.78-2.05.07-4.49-.91-4.77-2.94-.23-1.64,1.05-3.06,2.23-4.21,1.33-1.3,2.67-2.61,4.14-3.75.49-.38,1.02-.77,1.26-1.34.17-.4.18-.85.19-1.28.09-4.98.18-9.96.27-14.94-10.02-3.15-20.87-1.31-31.3-2.53-1.19-.14-2.55-.42-3.14-1.47-.83-1.46.39-3.21,1.59-4.39,5.51-5.43,12.2-9.65,19.47-12.3,4.14-1.5,7.54-4.42,10.01-8.07.91-1.35,1.66-2.83,2.77-4.03s2.7-2.1,4.32-1.87c1.71.25,2.97,1.67,4.1,2.98,5.15,6,10.88,11.78,18.07,15.08,2.01.92,4.32,1.82,5.23,3.84.43.93.49,2,.91,2.94,1.19,2.65,5.11,4.26,4.45,7.09-10.96,4.07-23,3.78-34.69,3.43,1.88,4.38,2.83,9.16,2.74,13.92,5.97-.53,11.39-3.03,15.4-7.48.92-1.03,2-2.24,3.38-2.11,1.93.18,2.51,2.65,3.64,4.23,1.2,1.69,3.29,2.48,5.25,3.18,2.9,1.03,5.8,2.06,8.7,3.09,2.23.79,4.52,1.62,6.31,3.18s2.98,4.04,2.34,6.32c-6.47,1.82-13.06,3.65-19.78,3.49-3.46-.08-6.93-.7-10.35-.17,1.03,2.39.89,5.11.69,7.7-.43,5.82-1.02,11.63-1.78,17.41-.22,1.71-.46,3.45-.17,5.16.21,1.22.69,2.39,1.14,3.54,3.02,7.77,4.99,15.95,5.83,24.24-1.48.67-3.25-.47-3.93-1.95s-.58-3.17-.62-4.79c-.2-8.36-4.21-16.28-4.47-24.64-.29-9.11,3.88-18.44,1.1-27.13-4.12-.16-8.24-.14-12.36.06-.6.03-1.23.07-1.73.39-.79.5-1.04,1.53-1.2,2.45-1.01,5.99-.67,12.12.08,18.15,1.52,12.08,4.75,23.95,9.56,35.13-1.15.06-2.14-.81-3.29-.75Z"/><path class="cls-2" d="M76.6,57c.07-7.24.86-10.81,1.64-12.73.16-.38.66-1.63,1-3.39.29-1.54.21-3.11.12-4.67-.24-4.34-.47-8.69-.71-13.03-7.76.79-16.4,1.36-22.54-3.45-.57-.45-1.14-.98-1.28-1.69-.23-1.16.77-2.18,1.73-2.89,2.82-2.09,6.05-3.61,9.46-4.44,4.27-1.04,9.26-1.26,12-4.69.91-1.14,1.46-2.53,2.35-3.69.89-1.16,2.33-2.1,3.75-1.75,1.64.4,2.41,2.22,3.33,3.64,1.93,2.98,5.27,4.73,8.55,6.07,3.29,1.35,6.75,2.46,9.53,4.68,2.78,2.22,4.75,5.9,3.77,9.32-8.74.9-17.58.98-26.33.22.51,11.46-.67,22.99-3.51,34.11l-.37-1.36c.53.07,3.65.56,5.43,3.34.31.49,2.24,3.49.72,5.91-1.15,1.82-3.82,2.62-6.42,1.72-1.78,12.57-3.12,22.01-3.67,26.91-.39,3.46-.72,6.05-1.94,9.5-.44,1.24-1.02,2.43-1.32,3.71-.5,2.12-.21,4.33-.34,6.51-.25,4.26-2.59,8.74-6.67,9.99-1.04-2.12.29-4.55,1.23-6.72,1.83-4.26,2.05-7.79,2.28-8.5,1.2-3.83,3.39-13.81,7.69-40.17"/><path class="cls-2" d="M14.95,38.41c.59-.17,1.2-.35,1.65-.76s.67-1.14.33-1.65"/><path class="cls-2" d="M22.96,39.33c.64-.89,1.07-1.93,1.26-3.01"/><path class="cls-2" d="M49.3,41.42c.64-.89,1.07-1.93,1.26-3.01"/><path class="cls-2" d="M58,41.42c.64-.89,1.07-1.93,1.26-3.01"/><path class="cls-2" d="M67.2,23.05c-.31-1.58-.3-1.93-.24-1.95.17-.05.5,1.85,1.75,2.32.5.19,1,.09,1.3,0,.09-.17.12-.37.07-.55.09.46.55.78,1.01.86.46.08,1.04.15,1.39-.15.78-.66.3-2.6.23-2.59-.06,0-.31,1.79.47,2.33.31.22.69.15,1.86-.12.81-.18,1.75-.4,2.78-.66,0-2.07-.06-2.48-.1-2.48-.08,0-.52,1.48.1,2.48.5.8,1.47.98,3.74,1.3,5.72.8,6.05.54,6.16.32.42-.87-1.76-3-2-2.84-.21.13.5,2.33,2,2.84.56.19,1.16.11,1.75.08.36-.02.2,0,2.72.14,3.64.19,4.01.18,4.07,0,.14-.45-1.8-1.61-1.91-1.48-.11.13,1.27,1.74,1.91,1.48.48-.2.52-1.44.4-1.47-.11-.03-.68.9-.4,1.47.3.61,1.62.93,2.34.31.39-.33.46-.82.48-1.02.03,0,3.08.88,3.08.88.04,0,3.89-.44,3.98-1.29.03-.23-.22-.62-1.73-1.24,1.29.56,2.72.79,4.13.67-.8.19-1.6.38-2.39.57"/><path class="cls-2" d="M30.88,69.8c10.49,0,20.99.01,31.48.02"/><path class="cls-2" d="M44.34,68.49v-2.25"/><path class="cls-2" d="M62.36,69.61v-3.38"/><path class="cls-2" d="M68.38,70.18v-3.38"/></svg>